<svg width="50" height="50" viewBox="0 0 50 50" fill="none" xmlns="http://www.w3.org/2000/svg">
<mask id="path-1-inside-1" fill="white">
<path fill-rule="evenodd" clip-rule="evenodd" d="M31.2472 6.90982C31.448 6.29179 31.228 5.61474 30.7023 5.23277L24.3817 0.64057C23.8559 0.258604 23.1441 0.258604 22.6183 0.64057L16.2977 5.23277C15.772 5.61474 15.552 6.29179 15.7528 6.90982L17.0936 11.0365C17.4085 12.0056 16.6861 13 15.667 13H3C1.34315 13 0 14.3431 0 16V47C0 48.6568 1.34315 50 3 50H47C48.6569 50 50 48.6568 50 47V16C50 14.3431 48.6569 13 47 13H31.333C30.3139 13 29.5915 12.0056 29.9064 11.0365L31.2472 6.90982Z"/>
</mask>
<path fill-rule="evenodd" clip-rule="evenodd" d="M31.2472 6.90982C31.448 6.29179 31.228 5.61474 30.7023 5.23277L24.3817 0.64057C23.8559 0.258604 23.1441 0.258604 22.6183 0.64057L16.2977 5.23277C15.772 5.61474 15.552 6.29179 15.7528 6.90982L17.0936 11.0365C17.4085 12.0056 16.6861 13 15.667 13H3C1.34315 13 0 14.3431 0 16V47C0 48.6568 1.34315 50 3 50H47C48.6569 50 50 48.6568 50 47V16C50 14.3431 48.6569 13 47 13H31.333C30.3139 13 29.5915 12.0056 29.9064 11.0365L31.2472 6.90982Z" fill="#F6F2EC"/>
<path d="M17.0936 11.0365L16.1426 11.3455L17.0936 11.0365ZM29.9064 11.0365L28.9553 10.7274L29.9064 11.0365ZM16.2977 5.23277L15.7099 4.42376L16.2977 5.23277ZM15.7528 6.90982L14.8017 7.21884L15.7528 6.90982ZM30.7023 5.23277L30.1145 6.04179L30.7023 5.23277ZM31.2472 6.90982L32.1983 7.21884L31.2472 6.90982ZM22.6183 0.64057L22.0305 -0.168447L22.6183 0.64057ZM23.7939 1.44959L30.1145 6.04179L31.2901 4.42375L24.9695 -0.168447L23.7939 1.44959ZM16.8855 6.04179L23.2061 1.44959L22.0305 -0.168447L15.7099 4.42376L16.8855 6.04179ZM18.0447 10.7274L16.7038 6.60081L14.8017 7.21884L16.1426 11.3455L18.0447 10.7274ZM3 14H15.667V12H3V14ZM1 16C1 14.8954 1.89543 14 3 14V12C0.790861 12 -1 13.7909 -1 16H1ZM1 47V16H-1V47H1ZM3 49C1.89543 49 1 48.1046 1 47H-1C-1 49.2091 0.790862 51 3 51V49ZM47 49H3V51H47V49ZM49 47C49 48.1046 48.1046 49 47 49V51C49.2091 51 51 49.2091 51 47H49ZM49 16V47H51V16H49ZM47 14C48.1046 14 49 14.8954 49 16H51C51 13.7909 49.2091 12 47 12V14ZM31.333 14H47V12H31.333V14ZM30.2962 6.60081L28.9553 10.7274L30.8574 11.3455L32.1983 7.21884L30.2962 6.60081ZM16.1426 11.3455C16.2475 11.6685 16.0067 12 15.667 12V14C17.3655 14 18.5695 12.3427 18.0447 10.7274L16.1426 11.3455ZM31.333 12C30.9933 12 30.7525 11.6685 30.8574 11.3455L28.9553 10.7274C28.4305 12.3427 29.6345 14 31.333 14V12ZM15.7099 4.42376C14.8337 5.06037 14.467 6.18878 14.8017 7.21884L16.7038 6.60081C16.6369 6.3948 16.7102 6.16911 16.8855 6.04179L15.7099 4.42376ZM30.1145 6.04179C30.2898 6.16911 30.3631 6.3948 30.2962 6.60081L32.1983 7.21884C32.533 6.18878 32.1663 5.06036 31.2901 4.42375L30.1145 6.04179ZM24.9695 -0.168447C24.0932 -0.805058 22.9068 -0.805056 22.0305 -0.168447L23.2061 1.44959C23.3814 1.32226 23.6186 1.32227 23.7939 1.44959L24.9695 -0.168447Z" fill="#795223" mask="url(#path-1-inside-1)"/>
<path d="M6.10875 25.2645C6.08604 25.3203 6.05481 25.3928 6.01507 25.4821C5.97533 25.5714 5.93559 25.6718 5.89585 25.7834C5.85611 25.8894 5.81921 26.001 5.78515 26.1182C5.75676 26.2354 5.74257 26.3497 5.74257 26.4613C5.74257 26.6901 5.80218 26.891 5.9214 27.0639C6.0463 27.2313 6.2081 27.3764 6.4068 27.4992C6.6055 27.6163 6.8269 27.7168 7.07102 27.8005C7.32082 27.8786 7.57345 27.94 7.82892 27.9846C8.08439 28.0292 8.32851 28.0599 8.56127 28.0767C8.79403 28.0934 8.99557 28.1018 9.16589 28.1018C9.56329 28.1018 9.9692 28.0878 10.3836 28.0599C10.8037 28.0264 11.221 27.9734 11.6354 27.9009C12.0556 27.8284 12.4643 27.7335 12.8617 27.6163C13.2648 27.4936 13.648 27.3429 14.0113 27.1644C14.0056 26.8966 13.9347 26.665 13.7984 26.4697C13.6679 26.2744 13.5117 26.1126 13.3301 25.9843L13.8751 24.3689C13.9489 24.4136 14.0312 24.4945 14.122 24.6117C14.2129 24.7288 14.298 24.8683 14.3775 25.0301C14.457 25.1919 14.5223 25.3705 14.5734 25.5658C14.6301 25.7611 14.6585 25.9619 14.6585 26.1684C14.6585 26.5032 14.5989 26.8268 14.4797 27.1393C14.3661 27.4517 14.2214 27.7503 14.0454 28.0348C13.9318 28.2134 13.7559 28.3752 13.5174 28.5203C13.2847 28.6597 13.0121 28.7853 12.6999 28.8969C12.3877 29.0085 12.0499 29.1033 11.6865 29.1815C11.3289 29.254 10.9655 29.3154 10.5965 29.3656C10.2332 29.4158 9.87837 29.4521 9.53206 29.4744C9.19143 29.4967 8.88203 29.5079 8.60385 29.5079C8.21213 29.5079 7.80621 29.4772 7.3861 29.4158C6.96599 29.36 6.58279 29.2484 6.23648 29.081C5.89018 28.9136 5.60348 28.6793 5.37639 28.378C5.15499 28.0711 5.04428 27.6721 5.04428 27.1811C5.04428 26.997 5.06983 26.8129 5.12092 26.6287C5.17769 26.4446 5.24866 26.2716 5.33382 26.1098C5.42465 25.9424 5.524 25.7862 5.63187 25.6411C5.74541 25.496 5.86179 25.3677 5.98101 25.2561C6.01507 25.2282 6.04914 25.2143 6.0832 25.2143C6.10023 25.2143 6.10875 25.231 6.10875 25.2645ZM10.8435 25.3649L9.95785 24.4945L10.8435 23.624L11.7547 24.4945L10.8435 25.3649ZM9.05518 25.3649L8.144 24.4945L9.05518 23.624L9.94082 24.4945L9.05518 25.3649Z" fill="#1C0605"/>
<path d="M18.2181 29.3572C17.9342 29.3572 17.6873 29.2819 17.4772 29.1312C17.2728 28.975 17.0997 28.7741 16.9578 28.5286C16.8215 28.2775 16.7108 27.9985 16.6256 27.6917C16.5462 27.3792 16.4837 27.0695 16.4383 26.7626C16.3929 26.4502 16.3617 26.1544 16.3446 25.8755C16.3333 25.5965 16.3248 25.3621 16.3191 25.1724L16.2339 21.0127L16.9492 20.2176V24.5196C16.9492 24.6758 16.9606 24.8823 16.9833 25.1389C17.006 25.39 17.0401 25.6467 17.0855 25.9089C17.1309 26.1712 17.1848 26.4223 17.2473 26.6622C17.3097 26.8966 17.3835 27.0807 17.4687 27.2146C17.6333 27.4768 17.8207 27.6498 18.0307 27.7335C18.2408 27.8116 18.4707 27.8507 18.7205 27.8507H19.2485C19.328 27.8507 19.3961 27.873 19.4529 27.9176C19.5153 27.9567 19.5664 28.0125 19.6061 28.085C19.6516 28.152 19.6828 28.2301 19.6998 28.3194C19.7225 28.4087 19.7339 28.5035 19.7339 28.604C19.7339 28.7044 19.7225 28.7992 19.6998 28.8885C19.6828 28.9778 19.6516 29.0587 19.6061 29.1312C19.5664 29.1982 19.5153 29.254 19.4529 29.2986C19.3961 29.3377 19.328 29.3572 19.2485 29.3572H18.2181Z" fill="#1C0605"/>
<path d="M18.7375 29.3572C18.5899 29.3572 18.4792 29.2819 18.4054 29.1312C18.3316 28.975 18.2947 28.7992 18.2947 28.604C18.2947 28.4087 18.3316 28.2357 18.4054 28.085C18.4792 27.9288 18.5899 27.8507 18.7375 27.8507C18.8908 27.8507 19.0555 27.8479 19.2315 27.8423C19.4131 27.8312 19.5863 27.8116 19.7509 27.7837C19.9212 27.7503 20.0774 27.7056 20.2193 27.6498C20.3612 27.594 20.4691 27.5215 20.5429 27.4322C20.6791 27.2648 20.8324 27.0472 21.0027 26.7794C21.173 26.506 21.3547 26.2409 21.5477 25.9843C21.7408 25.7276 21.9395 25.5072 22.1438 25.3231C22.3482 25.1334 22.5526 25.0385 22.757 25.0385C22.8421 25.0385 22.9301 25.0831 23.0209 25.1724C23.1175 25.2561 23.2111 25.3677 23.302 25.5072C23.3985 25.6467 23.4865 25.8001 23.566 25.9675C23.6511 26.1349 23.7249 26.3023 23.7874 26.4697C23.8555 26.6315 23.9066 26.7822 23.9406 26.9217C23.9804 27.0556 24.0003 27.1588 24.0003 27.2313C24.0003 27.3764 23.9775 27.5438 23.9321 27.7335C23.8924 27.9176 23.8243 28.0934 23.7278 28.2608C23.6312 28.4282 23.5063 28.5705 23.3531 28.6876C23.2055 28.8048 23.0238 28.8634 22.8081 28.8634C22.6775 28.8634 22.5327 28.8383 22.3738 28.7881C22.2148 28.7323 22.0558 28.6653 21.8969 28.5872C21.7379 28.5091 21.5846 28.4254 21.437 28.3361C21.2894 28.2413 21.1617 28.152 21.0538 28.0683C20.98 28.258 20.9005 28.4338 20.8154 28.5956C20.7359 28.7518 20.6394 28.8857 20.5258 28.9973C20.4123 29.1089 20.2761 29.1982 20.1171 29.2651C19.9581 29.3265 19.7679 29.3572 19.5465 29.3572H18.7375ZM23.1742 27.3318C23.1742 27.2313 23.1515 27.117 23.1061 26.9886C23.0664 26.8547 23.0068 26.7292 22.9273 26.612C22.8535 26.4948 22.7655 26.3944 22.6633 26.3107C22.5668 26.227 22.4589 26.1851 22.3397 26.1851C22.2659 26.1851 22.1892 26.2158 22.1098 26.2772C22.036 26.333 21.965 26.4027 21.8969 26.4864C21.8344 26.5701 21.7748 26.6594 21.718 26.7543C21.667 26.8435 21.6272 26.9217 21.5988 26.9886C21.6442 27.05 21.7237 27.117 21.8373 27.1895C21.9508 27.262 22.0729 27.329 22.2034 27.3904C22.3397 27.4517 22.4674 27.5047 22.5866 27.5494C22.7115 27.5884 22.8052 27.608 22.8677 27.608C22.9528 27.608 23.0238 27.5856 23.0806 27.541C23.143 27.4964 23.1742 27.4266 23.1742 27.3318Z" fill="#1C0605"/>
<path d="M23.7192 31.2069C24.2075 31.2906 24.7014 31.3324 25.201 31.3324C25.9617 31.3324 26.6231 31.1846 27.1851 30.8889C27.7528 30.5931 28.224 30.1105 28.5987 29.4409H28.4284C28.2695 29.4409 28.0992 29.4298 27.9175 29.4074C27.7358 29.3907 27.5683 29.3516 27.4151 29.2903C27.2675 29.2289 27.1426 29.1396 27.0404 29.0224C26.9439 28.9053 26.8956 28.749 26.8956 28.5537C26.8956 28.47 26.9126 28.3584 26.9467 28.2189C26.9864 28.0739 27.0375 27.9204 27.1 27.7586C27.1681 27.5912 27.2447 27.4238 27.3299 27.2564C27.4207 27.0835 27.5144 26.93 27.6109 26.7961C27.7131 26.6566 27.8153 26.545 27.9175 26.4613C28.0253 26.3721 28.1304 26.3274 28.2326 26.3274C28.3575 26.3274 28.4738 26.3888 28.5817 26.5116C28.6953 26.6343 28.7974 26.7794 28.8883 26.9468C28.9791 27.1086 29.0557 27.276 29.1182 27.4489C29.1863 27.6163 29.2346 27.7503 29.263 27.8507H30.5233C30.6709 27.8507 30.7788 27.9288 30.8469 28.085C30.9207 28.2357 30.9576 28.4087 30.9576 28.604C30.9576 28.7992 30.9207 28.975 30.8469 29.1312C30.7788 29.2819 30.6709 29.3572 30.5233 29.3572H29.1267C29.1267 29.4242 29.1154 29.4939 29.0927 29.5665C29.0756 29.6446 29.0529 29.7227 29.0245 29.8008C28.9961 29.8789 28.9649 29.9515 28.9309 30.0184C28.9025 30.091 28.8741 30.1551 28.8457 30.2109C28.7265 30.4453 28.576 30.6852 28.3944 30.9307C28.2127 31.1818 28.0083 31.4106 27.7812 31.617C27.5598 31.829 27.3157 32.002 27.0489 32.1359C26.7821 32.2698 26.5039 32.3368 26.2143 32.3368C25.6977 32.3368 25.2322 32.2503 24.8178 32.0773C24.4033 31.9099 24.0372 31.6198 23.7192 31.2069ZM27.9005 27.4741C27.855 27.4741 27.8096 27.4964 27.7642 27.541C27.7188 27.5856 27.679 27.6387 27.645 27.7C27.6109 27.7614 27.5825 27.8256 27.5598 27.8925C27.5428 27.9539 27.5343 28.0069 27.5343 28.0516C27.5343 28.1185 27.5541 28.1743 27.5939 28.2189C27.6393 28.258 27.6932 28.2887 27.7557 28.311C27.8238 28.3333 27.8919 28.3473 27.9601 28.3529C28.0339 28.3584 28.0963 28.3612 28.1474 28.3612C28.1758 28.3612 28.2127 28.3612 28.2581 28.3612C28.3035 28.3612 28.3461 28.3584 28.3858 28.3529C28.4313 28.3473 28.4682 28.3389 28.4966 28.3278C28.5306 28.311 28.5476 28.2887 28.5476 28.2608C28.5476 28.1938 28.5278 28.1157 28.488 28.0264C28.4483 27.9372 28.3972 27.8535 28.3348 27.7754C28.2723 27.6917 28.2013 27.6219 28.1219 27.5661C28.0481 27.5047 27.9743 27.4741 27.9005 27.4741Z" fill="#1C0605"/>
<path d="M29.9272 29.3572C29.7853 29.3572 29.6802 29.2819 29.6121 29.1312C29.544 28.975 29.5099 28.7992 29.5099 28.604C29.5099 28.4087 29.544 28.2357 29.6121 28.085C29.6802 27.9288 29.7853 27.8507 29.9272 27.8507H30.4296C30.7589 27.8507 31.0229 27.7586 31.2216 27.5745C31.426 27.3904 31.5281 27.0807 31.5281 26.6455C31.5281 26.5897 31.5253 26.5255 31.5196 26.453C31.5196 26.3804 31.514 26.2744 31.5026 26.1349C31.4912 25.9898 31.4771 25.7946 31.46 25.549C31.443 25.3035 31.4203 24.9771 31.3919 24.5698C31.3692 24.1625 31.3408 23.6603 31.3067 23.0633C31.2727 22.4607 31.2301 21.7353 31.179 20.8872L31.9965 20L32.3457 25.8085C32.3684 26.1991 32.4081 26.5116 32.4649 26.7459C32.5216 26.9747 32.5813 27.1365 32.6437 27.2313C32.797 27.4657 32.9531 27.6275 33.1121 27.7168C33.271 27.806 33.4754 27.8507 33.7252 27.8507H34.1425C34.3128 27.8507 34.4405 27.9288 34.5257 28.085C34.6108 28.2357 34.6534 28.4087 34.6534 28.604C34.6534 28.7992 34.6108 28.975 34.5257 29.1312C34.4405 29.2819 34.3128 29.3572 34.1425 29.3572H33.5208C33.3505 29.3572 33.1774 29.3014 33.0014 29.1898C32.831 29.0782 32.6749 28.9443 32.533 28.7881C32.3967 28.6318 32.2804 28.4672 32.1839 28.2943C32.0873 28.1213 32.0249 27.9734 31.9965 27.8507C31.9284 28.0069 31.8489 28.1743 31.7581 28.3529C31.6729 28.5314 31.5707 28.696 31.4515 28.8467C31.3323 28.9917 31.1932 29.1145 31.0342 29.2149C30.881 29.3098 30.7021 29.3572 30.4977 29.3572H29.9272Z" fill="#1C0605"/>
<path d="M34.5938 27.8507C34.6449 27.8507 34.7272 27.8423 34.8408 27.8256C34.9543 27.8088 35.082 27.7893 35.224 27.767C35.3716 27.7391 35.522 27.7056 35.6753 27.6666C35.8343 27.6275 35.9762 27.5856 36.1011 27.541C36.2317 27.4908 36.3367 27.4406 36.4162 27.3904C36.5013 27.3401 36.5439 27.2871 36.5439 27.2313C36.5439 27.1811 36.4843 27.1197 36.3651 27.0472C36.2515 26.9747 36.1181 26.9049 35.9648 26.838C35.8172 26.7654 35.6725 26.7013 35.5305 26.6455C35.3886 26.5897 35.2921 26.5506 35.241 26.5283C35.258 26.333 35.3262 26.1377 35.4454 25.9424C35.5646 25.7415 35.7122 25.563 35.8882 25.4068C36.0699 25.2505 36.2657 25.125 36.4758 25.0301C36.6915 24.9297 36.9016 24.8795 37.1059 24.8795C37.299 24.8795 37.5033 24.899 37.7191 24.9381C37.9348 24.9771 38.1335 25.0469 38.3152 25.1473C38.5025 25.2422 38.6558 25.3705 38.775 25.5323C38.8942 25.6885 38.9538 25.8838 38.9538 26.1182C38.9538 26.2633 38.9425 26.386 38.9198 26.4864C38.9028 26.5869 38.863 26.6817 38.8006 26.771C38.7381 26.8547 38.653 26.9412 38.5451 27.0305C38.4372 27.1142 38.2925 27.2202 38.1108 27.3485C38.1732 27.4322 38.2641 27.5047 38.3833 27.5661C38.5082 27.6275 38.6444 27.6805 38.792 27.7251C38.9453 27.7642 39.1015 27.7949 39.2604 27.8172C39.4194 27.8395 39.5613 27.8507 39.6862 27.8507H40.1716C40.3419 27.8507 40.4696 27.9288 40.5548 28.085C40.64 28.2357 40.6825 28.4087 40.6825 28.604C40.6825 28.7992 40.64 28.975 40.5548 29.1312C40.4696 29.2819 40.3419 29.3572 40.1716 29.3572H39.4563C39.286 29.3572 39.0958 29.3237 38.8857 29.2568C38.6813 29.1898 38.4741 29.1005 38.2641 28.989C38.0597 28.8774 37.8638 28.749 37.6765 28.604C37.4948 28.4533 37.3444 28.2999 37.2252 28.1436C37.0492 28.3278 36.8505 28.4951 36.6291 28.6458C36.4133 28.7965 36.1806 28.9248 35.9308 29.0308C35.6866 29.1312 35.434 29.2121 35.1729 29.2735C34.9117 29.3293 34.6534 29.3572 34.3979 29.3572H33.7167C33.5634 29.3572 33.4499 29.2819 33.3761 29.1312C33.3023 28.975 33.2653 28.7992 33.2653 28.604C33.2653 28.4087 33.3023 28.2357 33.3761 28.085C33.4499 27.9288 33.5634 27.8507 33.7167 27.8507H34.5938Z" fill="#1C0605"/>
<path d="M39.7373 29.3572C39.5897 29.3572 39.479 29.2819 39.4052 29.1312C39.3314 28.975 39.2945 28.7992 39.2945 28.604C39.2945 28.4087 39.3314 28.2357 39.4052 28.085C39.479 27.9288 39.5897 27.8507 39.7373 27.8507C39.8906 27.8507 40.0552 27.8479 40.2312 27.8423C40.4129 27.8312 40.586 27.8116 40.7507 27.7837C40.921 27.7503 41.0771 27.7056 41.219 27.6498C41.361 27.594 41.4688 27.5215 41.5426 27.4322C41.6789 27.2648 41.8322 27.0472 42.0025 26.7794C42.1728 26.506 42.3545 26.2409 42.5475 25.9843C42.7405 25.7276 42.9392 25.5072 43.1436 25.3231C43.348 25.1334 43.5523 25.0385 43.7567 25.0385C43.8419 25.0385 43.9299 25.0831 44.0207 25.1724C44.1172 25.2561 44.2109 25.3677 44.3017 25.5072C44.3982 25.6467 44.4862 25.8001 44.5657 25.9675C44.6509 26.1349 44.7247 26.3023 44.7871 26.4697C44.8552 26.6315 44.9063 26.7822 44.9404 26.9217C44.9801 27.0556 45 27.1588 45 27.2313C45 27.3764 44.9773 27.5438 44.9319 27.7335C44.8921 27.9176 44.824 28.0934 44.7275 28.2608C44.631 28.4282 44.5061 28.5705 44.3528 28.6876C44.2052 28.8048 44.0235 28.8634 43.8078 28.8634C43.6772 28.8634 43.5325 28.8383 43.3735 28.7881C43.2145 28.7323 43.0556 28.6653 42.8966 28.5872C42.7377 28.5091 42.5844 28.4254 42.4368 28.3361C42.2892 28.2413 42.1614 28.152 42.0536 28.0683C41.9798 28.258 41.9003 28.4338 41.8151 28.5956C41.7356 28.7518 41.6391 28.8857 41.5256 28.9973C41.412 29.1089 41.2758 29.1982 41.1168 29.2651C40.9579 29.3265 40.7677 29.3572 40.5463 29.3572H39.7373ZM44.174 27.3318C44.174 27.2313 44.1513 27.117 44.1059 26.9886C44.0661 26.8547 44.0065 26.7292 43.927 26.612C43.8532 26.4948 43.7652 26.3944 43.663 26.3107C43.5665 26.227 43.4587 26.1851 43.3394 26.1851C43.2656 26.1851 43.189 26.2158 43.1095 26.2772C43.0357 26.333 42.9647 26.4027 42.8966 26.4864C42.8342 26.5701 42.7746 26.6594 42.7178 26.7543C42.6667 26.8435 42.627 26.9217 42.5986 26.9886C42.644 27.05 42.7235 27.117 42.837 27.1895C42.9506 27.262 43.0726 27.329 43.2032 27.3904C43.3394 27.4517 43.4672 27.5047 43.5864 27.5494C43.7113 27.5884 43.805 27.608 43.8674 27.608C43.9526 27.608 44.0235 27.5856 44.0803 27.541C44.1428 27.4964 44.174 27.4266 44.174 27.3318Z" fill="#1C0605"/>
<path d="M13.1495 41.0161C12.8884 41.2393 12.579 41.4401 12.2213 41.6187C11.8693 41.7917 11.4805 41.9423 11.0547 42.0706C10.6289 42.1934 10.1719 42.2883 9.68364 42.3552C9.20108 42.4222 8.69866 42.4556 8.17636 42.4556C7.80735 42.4556 7.43265 42.4194 7.05229 42.3468C6.6776 42.2743 6.33697 42.1515 6.0304 41.9786C5.72951 41.8 5.48256 41.5685 5.28953 41.2839C5.09651 40.9938 5 40.6339 5 40.2042C5 39.8639 5.09083 39.5374 5.2725 39.225C5.45985 38.9069 5.68977 38.6279 5.96228 38.388C5.97363 38.3769 5.9935 38.3796 6.02189 38.3964C6.05027 38.4131 6.05879 38.4327 6.04743 38.455C6.02472 38.5052 5.9935 38.561 5.95376 38.6224C5.91402 38.6782 5.87428 38.7451 5.83454 38.8232C5.80048 38.9014 5.76925 38.9962 5.74087 39.1078C5.71248 39.2138 5.69829 39.3449 5.69829 39.5012C5.69829 39.7244 5.76074 39.9169 5.88563 40.0787C6.01053 40.2349 6.17233 40.3688 6.37103 40.4804C6.56973 40.5864 6.79398 40.6701 7.04377 40.7315C7.29356 40.7929 7.54336 40.8403 7.79315 40.8738C8.04862 40.9073 8.29274 40.9296 8.5255 40.9407C8.75827 40.9519 8.95697 40.9575 9.1216 40.9575C9.34869 40.9575 9.59565 40.9435 9.86247 40.9156C10.1293 40.8877 10.4018 40.8459 10.68 40.7901C10.9582 40.7343 11.2363 40.6618 11.5145 40.5725C11.7984 40.4832 12.0652 40.3772 12.315 40.2544C12.5648 40.1261 12.7919 39.9838 12.9963 39.8276C13.2063 39.6658 13.3795 39.4844 13.5157 39.2836C13.5498 39.2836 13.5668 39.2975 13.5668 39.3254C13.5668 39.4649 13.5838 39.6156 13.6179 39.7774C13.6576 39.9392 13.7087 40.0898 13.7712 40.2293C13.8393 40.3688 13.9188 40.4832 14.0096 40.5725C14.1005 40.6618 14.2026 40.7064 14.3162 40.7064H14.9464C15.111 40.7064 15.233 40.7845 15.3125 40.9407C15.392 41.0914 15.4317 41.2644 15.4317 41.4597C15.4317 41.6549 15.392 41.8307 15.3125 41.9869C15.233 42.1376 15.111 42.2129 14.9464 42.2129H14.3673C14.2083 42.2129 14.0579 42.1767 13.916 42.1041C13.7797 42.0316 13.6576 41.9395 13.5498 41.8279C13.4476 41.7107 13.3624 41.5824 13.2943 41.4429C13.2262 41.2978 13.1779 41.1556 13.1495 41.0161ZM10.5522 38.7061L9.66661 37.8356L10.5522 36.9652L11.4634 37.8356L10.5522 38.7061ZM8.76394 38.7061L7.85276 37.8356L8.76394 36.9652L9.64958 37.8356L8.76394 38.7061Z" fill="#1C0605"/>
<path d="M14.4013 42.2129C14.2708 42.2129 14.1714 42.1376 14.1033 41.9869C14.0352 41.8307 14.0011 41.6549 14.0011 41.4597C14.0011 41.2644 14.0352 41.0914 14.1033 40.9407C14.1714 40.7845 14.2708 40.7064 14.4013 40.7064C14.549 40.7064 14.6994 40.7064 14.8527 40.7064C15.0116 40.7064 15.1621 40.7036 15.304 40.698C15.4516 40.6924 15.5879 40.6841 15.7128 40.6729C15.8433 40.6562 15.9512 40.6366 16.0364 40.6143C16.1669 40.5809 16.2691 40.5167 16.3429 40.4218C16.4224 40.3214 16.4877 40.2126 16.5388 40.0954C16.5899 39.9727 16.6325 39.8499 16.6665 39.7272C16.7006 39.5988 16.7375 39.49 16.7772 39.4007C16.7829 39.384 16.7971 39.3728 16.8198 39.3673C16.8425 39.3561 16.8652 39.3505 16.8879 39.3505C16.9163 39.3505 16.939 39.3589 16.9561 39.3756C16.9731 39.3868 16.9788 39.4063 16.9731 39.4342C16.9617 39.5235 16.9532 39.6128 16.9475 39.702C16.9419 39.7913 16.939 39.8499 16.939 39.8778C16.939 40.0731 17.0015 40.2265 17.1264 40.3381C17.2569 40.4497 17.4159 40.5334 17.6033 40.5892C17.7906 40.6394 17.9893 40.6729 18.1994 40.6897C18.4151 40.7008 18.6053 40.7064 18.7699 40.7064C18.9118 40.7064 19.0169 40.7845 19.085 40.9407C19.1588 41.0914 19.1957 41.2644 19.1957 41.4597C19.1957 41.6549 19.1588 41.8307 19.085 41.9869C19.0169 42.1376 18.9118 42.2129 18.7699 42.2129H17.7906C17.6714 42.2129 17.5493 42.1878 17.4244 42.1376C17.2995 42.0874 17.1775 42.0176 17.0582 41.9284C16.9447 41.8391 16.8368 41.7359 16.7347 41.6187C16.6381 41.5015 16.5558 41.3732 16.4877 41.2337C16.4366 41.3341 16.3628 41.4429 16.2663 41.5601C16.1755 41.6717 16.0704 41.7777 15.9512 41.8781C15.8377 41.973 15.7156 42.0539 15.585 42.1209C15.4601 42.1822 15.3352 42.2129 15.2103 42.2129H14.4013ZM17.3648 45L16.4792 44.1296L17.3648 43.2591L18.276 44.1296L17.3648 45ZM15.5765 45L14.6653 44.1296L15.5765 43.2591L16.4621 44.1296L15.5765 45Z" fill="#1C0605"/>
<path d="M18.1823 42.2129C18.0404 42.2129 17.9354 42.1376 17.8672 41.9869C17.7991 41.8307 17.7651 41.6549 17.7651 41.4597C17.7651 41.2644 17.7991 41.0914 17.8672 40.9407C17.9354 40.7845 18.0404 40.7064 18.1823 40.7064H18.6847C19.014 40.7064 19.278 40.6143 19.4767 40.4302C19.6811 40.2461 19.7833 39.9364 19.7833 39.5012C19.7833 39.4454 19.7804 39.3812 19.7748 39.3087C19.7748 39.2361 19.7691 39.1301 19.7577 38.9906C19.7464 38.8456 19.7322 38.6503 19.7151 38.4048C19.6981 38.1592 19.6754 37.8328 19.647 37.4255C19.6243 37.0182 19.5959 36.516 19.5619 35.919C19.5278 35.3164 19.4852 34.591 19.4341 33.7429L20.2516 32.8557L20.6008 38.6642C20.6235 39.0548 20.6632 39.3673 20.72 39.6016C20.7768 39.8304 20.8364 39.9922 20.8988 40.087C21.0521 40.3214 21.2082 40.4832 21.3672 40.5725C21.5262 40.6618 21.7305 40.7064 21.9803 40.7064H22.3976C22.5679 40.7064 22.6956 40.7845 22.7808 40.9407C22.866 41.0914 22.9085 41.2644 22.9085 41.4597C22.9085 41.6549 22.866 41.8307 22.7808 41.9869C22.6956 42.1376 22.5679 42.2129 22.3976 42.2129H21.776C21.6056 42.2129 21.4325 42.1571 21.2565 42.0455C21.0862 41.9339 20.9301 41.8 20.7881 41.6438C20.6519 41.4876 20.5355 41.323 20.439 41.15C20.3425 40.977 20.28 40.8291 20.2516 40.7064C20.1835 40.8626 20.104 41.03 20.0132 41.2086C19.928 41.3871 19.8259 41.5517 19.7066 41.7024C19.5874 41.8475 19.4483 41.9702 19.2894 42.0706C19.1361 42.1655 18.9573 42.2129 18.7529 42.2129H18.1823Z" fill="#1C0605"/>
<path d="M21.9122 42.2129C21.7703 42.2129 21.6652 42.1376 21.5971 41.9869C21.529 41.8307 21.4949 41.6549 21.4949 41.4597C21.4949 41.2644 21.529 41.0914 21.5971 40.9407C21.6652 40.7845 21.7703 40.7064 21.9122 40.7064C22.2131 40.7064 22.4828 40.7064 22.7212 40.7064C22.9596 40.7064 23.1896 40.7036 23.411 40.698C23.6324 40.6924 23.8538 40.6841 24.0752 40.6729C24.2966 40.6618 24.5407 40.6478 24.8075 40.6311C25.0517 40.6143 25.239 40.5613 25.3696 40.472C25.5058 40.3828 25.6137 40.2991 25.6932 40.221C25.6989 40.0591 25.6847 39.9057 25.6506 39.7606C25.6165 39.6156 25.5683 39.4956 25.5058 39.4007C25.3469 39.5235 25.1709 39.6379 24.9779 39.7439C24.7905 39.8499 24.5975 39.9029 24.3988 39.9029C24.2398 39.9029 24.1007 39.875 23.9815 39.8192C23.8623 39.7578 23.763 39.6769 23.6835 39.5765C23.604 39.4761 23.5444 39.3617 23.5046 39.2333C23.4706 39.0994 23.4535 38.9599 23.4535 38.8149C23.4535 38.72 23.4649 38.6028 23.4876 38.4633C23.516 38.3238 23.5529 38.176 23.5983 38.0198C23.6494 37.8635 23.7119 37.7073 23.7857 37.5511C23.8595 37.3948 23.9418 37.2553 24.0326 37.1326C24.1234 37.0098 24.2228 36.9094 24.3307 36.8313C24.4385 36.7532 24.5549 36.7141 24.6798 36.7141C24.8274 36.7141 24.9665 36.7755 25.0971 36.8982C25.2333 37.0154 25.3554 37.1688 25.4633 37.3586C25.5711 37.5427 25.6676 37.7519 25.7528 37.9863C25.8379 38.2206 25.9089 38.4522 25.9657 38.681C26.0225 38.9041 26.065 39.1134 26.0934 39.3087C26.1275 39.504 26.1445 39.6602 26.1445 39.7774C26.1445 40.1512 26.065 40.4888 25.9061 40.7901C25.7528 41.0914 25.5456 41.3481 25.2844 41.5601C25.0233 41.7721 24.7252 41.9339 24.3903 42.0455C24.0553 42.1571 23.709 42.2129 23.3514 42.2129H21.9122ZM24.4839 37.9612C24.4215 37.9612 24.3534 37.9835 24.2796 38.0281C24.2114 38.0728 24.149 38.1286 24.0922 38.1955C24.0355 38.2569 23.9872 38.3266 23.9475 38.4048C23.9134 38.4773 23.8964 38.547 23.8964 38.614C23.8964 38.681 23.9134 38.7395 23.9475 38.7898C23.9872 38.84 24.0355 38.879 24.0922 38.9069C24.149 38.9348 24.2114 38.9571 24.2796 38.9739C24.3477 38.985 24.4101 38.9906 24.4669 38.9906C24.4953 38.9906 24.5407 38.985 24.6032 38.9739C24.6656 38.9571 24.7309 38.9376 24.799 38.9153C24.8728 38.893 24.9438 38.8679 25.0119 38.84C25.08 38.8065 25.134 38.7758 25.1737 38.7479C25.1567 38.681 25.1226 38.6028 25.0715 38.5136C25.0261 38.4243 24.9693 38.3406 24.9012 38.2625C24.8388 38.1788 24.7706 38.109 24.6968 38.0532C24.623 37.9919 24.5521 37.9612 24.4839 37.9612ZM25.2929 35.7349L24.4073 34.8644L25.2929 33.994L26.2041 34.8644L25.2929 35.7349ZM23.5046 35.7349L22.5935 34.8644L23.5046 33.994L24.3903 34.8644L23.5046 35.7349Z" fill="#1C0605"/>
<path d="M28.4352 32.7888C28.4466 33.8098 28.4665 34.8281 28.4948 35.8437C28.5232 36.8592 28.5374 37.8803 28.5374 38.9069C28.5374 39.4593 28.5119 39.9615 28.4608 40.4135C28.4097 40.8654 28.3529 41.3006 28.2905 41.7191C28.2167 41.8028 28.1457 41.8893 28.0776 41.9786C28.0151 42.0623 27.9073 42.1404 27.754 42.2129V40.9407C27.754 40.2879 27.7426 39.6797 27.7199 39.1162C27.6972 38.5526 27.6717 37.9974 27.6433 37.4506C27.6206 36.9038 27.5979 36.3486 27.5752 35.7851C27.5524 35.2159 27.5411 34.605 27.5411 33.9521L28.4352 32.7888Z" fill="#1C0605"/>
<path d="M7.69863 32.048L5.36107 33.2533V32.726L7.69863 31.5358V32.048Z" fill="#1C0605"/>
</svg>
