<svg width="51" height="50" viewBox="0 0 51 50" fill="none" xmlns="http://www.w3.org/2000/svg">
<mask id="path-1-inside-1" fill="white">
<path fill-rule="evenodd" clip-rule="evenodd" d="M44.3037 33.584L50.177 25.5L44.3037 17.416L37.177 19.7316L37.177 3C37.177 1.34315 35.8339 -6.26959e-07 34.177 -6.99382e-07L3.17703 -2.05444e-06C1.52018 -2.12686e-06 0.177032 1.34314 0.177032 3L0.17703 47C0.17703 48.6569 1.52018 50 3.17703 50L34.177 50C35.8339 50 37.177 48.6569 37.177 47L37.177 31.2684L44.3037 33.584Z"/>
</mask>
<path fill-rule="evenodd" clip-rule="evenodd" d="M44.3037 33.584L50.177 25.5L44.3037 17.416L37.177 19.7316L37.177 3C37.177 1.34315 35.8339 -6.26959e-07 34.177 -6.99382e-07L3.17703 -2.05444e-06C1.52018 -2.12686e-06 0.177032 1.34314 0.177032 3L0.17703 47C0.17703 48.6569 1.52018 50 3.17703 50L34.177 50C35.8339 50 37.177 48.6569 37.177 47L37.177 31.2684L44.3037 33.584Z" fill="#F6F2EC"/>
<path d="M50.177 25.5L50.986 26.0878L51.4131 25.5L50.986 24.9122L50.177 25.5ZM44.3037 33.584L43.9947 34.535L44.6856 34.7596L45.1127 34.1718L44.3037 33.584ZM44.3037 17.416L45.1127 16.8282L44.6856 16.2404L43.9947 16.465L44.3037 17.416ZM37.177 19.7316L36.177 19.7316L36.177 21.108L37.486 20.6827L37.177 19.7316ZM37.177 3L38.177 3L37.177 3ZM37.177 31.2684L37.486 30.3173L36.177 29.892L36.177 31.2684L37.177 31.2684ZM49.368 24.9122L43.4947 32.9962L45.1127 34.1718L50.986 26.0878L49.368 24.9122ZM43.4947 18.0038L49.368 26.0878L50.986 24.9122L45.1127 16.8282L43.4947 18.0038ZM37.486 20.6827L44.6127 18.3671L43.9947 16.465L36.868 18.7806L37.486 20.6827ZM36.177 3L36.177 19.7316L38.177 19.7316L38.177 3L36.177 3ZM34.177 0.999999C35.2816 0.999999 36.177 1.89543 36.177 3L38.177 3C38.177 0.790861 36.3862 -1 34.177 -1L34.177 0.999999ZM3.17703 0.999998L34.177 0.999999L34.177 -1L3.17703 -1L3.17703 0.999998ZM1.17703 3C1.17703 1.89543 2.07246 0.999998 3.17703 0.999998L3.17703 -1C0.967891 -1 -0.822968 0.79086 -0.822968 3L1.17703 3ZM1.17703 47L1.17703 3L-0.822968 3L-0.82297 47L1.17703 47ZM3.17703 49C2.07246 49 1.17703 48.1046 1.17703 47L-0.82297 47C-0.82297 49.2091 0.967893 51 3.17703 51L3.17703 49ZM34.177 49L3.17703 49L3.17703 51L34.177 51L34.177 49ZM36.177 47C36.177 48.1046 35.2816 49 34.177 49L34.177 51C36.3862 51 38.177 49.2091 38.177 47L36.177 47ZM36.177 31.2684L36.177 47L38.177 47L38.177 31.2684L36.177 31.2684ZM44.6127 32.6329L37.486 30.3173L36.868 32.2194L43.9947 34.535L44.6127 32.6329Z" fill="#795223" mask="url(#path-1-inside-1)"/>
<path d="M5 13L5 1" stroke="black" stroke-miterlimit="10" stroke-linecap="round" stroke-linejoin="round"/>
<path d="M9 7L9 1" stroke="black" stroke-miterlimit="10" stroke-linecap="round" stroke-linejoin="round"/>
<path d="M33 37L33 49" stroke="black" stroke-miterlimit="10" stroke-linecap="round" stroke-linejoin="round"/>
<path d="M29 43L29 49" stroke="black" stroke-miterlimit="10" stroke-linecap="round" stroke-linejoin="round"/>
</svg>
