<svg width="101" height="51" viewBox="0 0 101 51" fill="none" xmlns="http://www.w3.org/2000/svg">
<g filter="url(#filter0_d)">
<path d="M71.7012 43.5821L16.5418 43.5821C13.488 43.5821 11 41.3009 11 38.4522L11 8.12803C11 5.2996 13.488 3 16.5418 3L71.7012 3C74.757 3 77.243 5.2996 77.243 8.12804L77.243 16.8861L91.1474 15.0784L96 22.8506L91.1474 30.6284L77.243 28.8226L77.243 38.4559C77.241 41.3009 74.757 43.5821 71.7012 43.5821Z" fill="#F2ECEC" stroke="#F1DABE" stroke-width="1.5" stroke-miterlimit="10" stroke-linecap="round" stroke-linejoin="round"/>
</g>
<path d="M27.5479 17.7695C27.6572 17.7695 27.7393 17.8333 27.7939 17.9609C27.8486 18.084 27.876 18.2253 27.876 18.3848C27.876 18.5443 27.8486 18.6878 27.7939 18.8154C27.7393 18.9385 27.6572 19 27.5479 19H26.4678C26.2718 19 26.0667 19.0068 25.8525 19.0205C25.6383 19.0387 25.4355 19.0729 25.2441 19.123C25.2214 19.1322 25.1849 19.1504 25.1348 19.1777C25.0892 19.2051 25.0664 19.2256 25.0664 19.2393C25.0664 19.2985 25.1051 19.3464 25.1826 19.3828C25.2601 19.4193 25.3581 19.4466 25.4766 19.4648C25.5951 19.4876 25.7249 19.5059 25.8662 19.5195C26.0075 19.5378 26.1419 19.556 26.2695 19.5742C26.4017 19.597 26.5179 19.6243 26.6182 19.6562C26.7184 19.6882 26.7845 19.7314 26.8164 19.7861C26.862 19.891 26.8848 19.9935 26.8848 20.0938C26.8848 20.2441 26.8278 20.4014 26.7139 20.5654C26.5999 20.7295 26.445 20.889 26.249 21.0439C26.0576 21.2035 25.832 21.3538 25.5723 21.4951C25.3125 21.6364 25.0368 21.7594 24.7451 21.8643C24.458 21.9736 24.1618 22.0602 23.8564 22.124C23.5557 22.1878 23.264 22.2197 22.9814 22.2197C22.6989 22.2197 22.4072 22.1878 22.1064 22.124C21.8102 22.0648 21.5391 21.9645 21.293 21.8232C21.0514 21.6865 20.8509 21.502 20.6914 21.2695C20.5365 21.0417 20.459 20.7568 20.459 20.415C20.459 20.2373 20.4886 20.0459 20.5479 19.8408C20.6117 19.6403 20.696 19.4375 20.8008 19.2324C20.9056 19.0319 21.0286 18.8359 21.1699 18.6445C21.3112 18.4486 21.4616 18.2708 21.6211 18.1113C21.6439 18.0885 21.6667 18.0771 21.6895 18.0771C21.7031 18.0771 21.71 18.0908 21.71 18.1182C21.6507 18.2184 21.5846 18.3392 21.5117 18.4805C21.4388 18.6172 21.3704 18.7653 21.3066 18.9248C21.2428 19.0843 21.1904 19.2484 21.1494 19.417C21.1084 19.5856 21.0879 19.7497 21.0879 19.9092C21.0879 20.2054 21.1608 20.4378 21.3066 20.6064C21.4525 20.7796 21.6348 20.9095 21.8535 20.9961C22.0723 21.0827 22.3115 21.1374 22.5713 21.1602C22.8311 21.1875 23.0749 21.2012 23.3027 21.2012C23.4395 21.2012 23.6035 21.1898 23.7949 21.167C23.9863 21.1488 24.1868 21.1214 24.3965 21.085C24.6107 21.0531 24.8226 21.012 25.0322 20.9619C25.2419 20.9163 25.4287 20.8639 25.5928 20.8047C25.7614 20.75 25.8981 20.6908 26.0029 20.627C26.1077 20.5632 26.1602 20.4971 26.1602 20.4287C26.1602 20.3695 26.1169 20.3262 26.0303 20.2988C25.9437 20.276 25.8343 20.2578 25.7021 20.2441C25.57 20.2305 25.4287 20.2145 25.2783 20.1963C25.1279 20.1781 24.9867 20.1439 24.8545 20.0938C24.7223 20.0482 24.613 19.9798 24.5264 19.8887C24.4398 19.7975 24.3965 19.6699 24.3965 19.5059C24.3965 19.2643 24.4808 19.0387 24.6494 18.8291C24.818 18.6149 25.0254 18.4303 25.2715 18.2754C25.5176 18.1159 25.7773 17.9928 26.0508 17.9062C26.3288 17.8151 26.5749 17.7695 26.7891 17.7695H27.5479ZM28.751 17.7695C28.7738 17.7695 28.7965 17.7581 28.8193 17.7354C28.8421 17.708 28.8626 17.6784 28.8809 17.6465C28.8991 17.61 28.9128 17.5736 28.9219 17.5371C28.931 17.5007 28.9355 17.471 28.9355 17.4482C28.9355 17.4163 28.9242 17.3639 28.9014 17.291C28.8831 17.2135 28.8581 17.1338 28.8262 17.0518C28.7988 16.9697 28.7692 16.8968 28.7373 16.833C28.7054 16.7646 28.6781 16.7214 28.6553 16.7031L29.0449 15.7119C29.1771 15.8851 29.2728 16.0856 29.332 16.3135C29.3913 16.5368 29.4209 16.7601 29.4209 16.9834C29.4209 17.152 29.4027 17.3206 29.3662 17.4893C29.3343 17.6579 29.2842 17.8197 29.2158 17.9746C29.1748 18.0703 29.111 18.1774 29.0244 18.2959C28.9424 18.4144 28.849 18.526 28.7441 18.6309C28.6393 18.7357 28.5277 18.8245 28.4092 18.8975C28.2907 18.9658 28.1768 19 28.0674 19H27.0352C26.9805 19 26.9326 18.9818 26.8916 18.9453C26.846 18.9089 26.8096 18.861 26.7822 18.8018C26.7549 18.7425 26.7344 18.6764 26.7207 18.6035C26.707 18.526 26.7002 18.4463 26.7002 18.3643C26.7002 18.2048 26.7275 18.0658 26.7822 17.9473C26.8369 17.8288 26.9212 17.7695 27.0352 17.7695H28.751ZM29.1064 13.2988C29.0381 13.2988 28.972 13.2806 28.9082 13.2441C28.8444 13.2031 28.7715 13.1826 28.6895 13.1826C28.6439 13.1826 28.5892 13.1963 28.5254 13.2236C28.4661 13.251 28.4092 13.2852 28.3545 13.3262C28.2998 13.3672 28.252 13.415 28.2109 13.4697C28.1745 13.5199 28.1562 13.57 28.1562 13.6201C28.1562 13.6748 28.1813 13.7227 28.2314 13.7637C28.2816 13.8047 28.3408 13.8366 28.4092 13.8594C28.4821 13.8822 28.555 13.9004 28.6279 13.9141C28.7008 13.9232 28.7578 13.9277 28.7988 13.9277H29.9199L29.585 14.4883H29.332C29.1725 14.4837 29.0085 14.4997 28.8398 14.5361C28.6758 14.568 28.514 14.6182 28.3545 14.6865C28.1995 14.7503 28.0492 14.8301 27.9033 14.9258C27.762 15.0169 27.6322 15.1172 27.5137 15.2266L27.3838 15.0488C27.402 15.0169 27.4362 14.9714 27.4863 14.9121C27.541 14.8529 27.5957 14.7913 27.6504 14.7275C27.7051 14.6637 27.7529 14.6045 27.7939 14.5498C27.8395 14.4906 27.8623 14.4473 27.8623 14.4199C27.8623 14.3789 27.8464 14.3333 27.8145 14.2832C27.7826 14.2285 27.7461 14.1715 27.7051 14.1123C27.6686 14.0531 27.6344 13.9915 27.6025 13.9277C27.5706 13.8639 27.5547 13.7979 27.5547 13.7295C27.5547 13.6794 27.582 13.6156 27.6367 13.5381C27.696 13.4606 27.7689 13.3786 27.8555 13.292C27.9421 13.2008 28.04 13.112 28.1494 13.0254C28.2588 12.9342 28.3636 12.8545 28.4639 12.7861C28.5687 12.7132 28.6644 12.654 28.751 12.6084C28.8421 12.5628 28.9105 12.54 28.9561 12.54C29.0062 12.54 29.0563 12.5537 29.1064 12.5811C29.1611 12.6038 29.2113 12.6357 29.2568 12.6768C29.3024 12.7132 29.3389 12.7565 29.3662 12.8066C29.3981 12.8522 29.4141 12.9001 29.4141 12.9502C29.4141 12.9867 29.4049 13.0254 29.3867 13.0664C29.3685 13.1074 29.3457 13.1462 29.3184 13.1826C29.291 13.2145 29.2591 13.2419 29.2227 13.2646C29.1862 13.2874 29.1475 13.2988 29.1064 13.2988ZM32.1553 19C31.9274 19 31.7292 18.9385 31.5605 18.8154C31.3965 18.6878 31.2575 18.5238 31.1436 18.3232C31.0342 18.1182 30.9453 17.8903 30.877 17.6396C30.8132 17.3844 30.763 17.1315 30.7266 16.8809C30.6901 16.6257 30.665 16.3841 30.6514 16.1562C30.6423 15.9284 30.6354 15.737 30.6309 15.582L30.5625 12.1846L31.1367 11.5352V15.0488C31.1367 15.1764 31.1458 15.3451 31.1641 15.5547C31.1823 15.7598 31.2096 15.9694 31.2461 16.1836C31.2826 16.3978 31.3258 16.6029 31.376 16.7988C31.4261 16.9902 31.4854 17.1406 31.5537 17.25C31.6859 17.4642 31.8363 17.6055 32.0049 17.6738C32.1735 17.7376 32.3581 17.7695 32.5586 17.7695H32.9824C33.0462 17.7695 33.1009 17.7878 33.1465 17.8242C33.1966 17.8561 33.2376 17.9017 33.2695 17.9609C33.306 18.0156 33.3311 18.0794 33.3447 18.1523C33.363 18.2253 33.3721 18.3027 33.3721 18.3848C33.3721 18.4668 33.363 18.5443 33.3447 18.6172C33.3311 18.6901 33.306 18.7562 33.2695 18.8154C33.2376 18.8701 33.1966 18.9157 33.1465 18.9521C33.1009 18.984 33.0462 19 32.9824 19H32.1553ZM32.5176 19C32.4128 19 32.333 18.9385 32.2783 18.8154C32.2236 18.6878 32.1963 18.5443 32.1963 18.3848C32.1963 18.2253 32.2236 18.084 32.2783 17.9609C32.333 17.8333 32.4128 17.7695 32.5176 17.7695C32.6361 17.7695 32.7568 17.7695 32.8799 17.7695C33.0075 17.7695 33.1283 17.7673 33.2422 17.7627C33.3607 17.7581 33.4701 17.7513 33.5703 17.7422C33.6751 17.7285 33.7617 17.7126 33.8301 17.6943C33.9349 17.667 34.0169 17.6146 34.0762 17.5371C34.14 17.4551 34.1924 17.3662 34.2334 17.2705C34.2744 17.1702 34.3086 17.07 34.3359 16.9697C34.3633 16.8649 34.3929 16.776 34.4248 16.7031C34.4294 16.6895 34.4408 16.6803 34.459 16.6758C34.4772 16.6667 34.4954 16.6621 34.5137 16.6621C34.5365 16.6621 34.5547 16.6689 34.5684 16.6826C34.582 16.6917 34.5866 16.7077 34.582 16.7305C34.5729 16.8034 34.5661 16.8763 34.5615 16.9492C34.557 17.0221 34.5547 17.07 34.5547 17.0928C34.5547 17.2523 34.6048 17.3776 34.7051 17.4688C34.8099 17.5599 34.9375 17.6283 35.0879 17.6738C35.2383 17.7148 35.3978 17.7422 35.5664 17.7559C35.7396 17.765 35.8923 17.7695 36.0244 17.7695C36.1383 17.7695 36.2227 17.8333 36.2773 17.9609C36.3366 18.084 36.3662 18.2253 36.3662 18.3848C36.3662 18.5443 36.3366 18.6878 36.2773 18.8154C36.2227 18.9385 36.1383 19 36.0244 19H35.2383C35.1426 19 35.0446 18.9795 34.9443 18.9385C34.8441 18.8975 34.7461 18.8405 34.6504 18.7676C34.5592 18.6947 34.4727 18.6104 34.3906 18.5146C34.3132 18.4189 34.2471 18.3141 34.1924 18.2002C34.1514 18.2822 34.0921 18.3711 34.0146 18.4668C33.9417 18.5579 33.8574 18.6445 33.7617 18.7266C33.6706 18.804 33.5726 18.8701 33.4678 18.9248C33.3675 18.9749 33.2673 19 33.167 19H32.5176ZM34.8965 21.2764L34.1855 20.5654L34.8965 19.8545L35.6279 20.5654L34.8965 21.2764ZM33.4609 21.2764L32.7295 20.5654L33.4609 19.8545L34.1719 20.5654L33.4609 21.2764ZM42.1426 19C42.0651 19 41.9899 18.984 41.917 18.9521C41.8441 18.9157 41.778 18.8747 41.7188 18.8291C41.6595 18.779 41.6071 18.7288 41.5615 18.6787C41.5205 18.624 41.4909 18.5762 41.4727 18.5352C41.3678 18.6628 41.2516 18.7767 41.124 18.877C40.9964 18.9772 40.8688 19.0273 40.7412 19.0273C40.6455 19.0273 40.5521 19.0114 40.4609 18.9795C40.3743 18.9476 40.2923 18.9089 40.2148 18.8633C40.1374 18.8177 40.0645 18.7699 39.9961 18.7197C39.9277 18.665 39.8662 18.6149 39.8115 18.5693C39.7796 18.5967 39.7295 18.6377 39.6611 18.6924C39.5973 18.7471 39.5199 18.7995 39.4287 18.8496C39.3376 18.8997 39.235 18.9453 39.1211 18.9863C39.0117 19.0228 38.8932 19.041 38.7656 19.041C38.6198 19.041 38.4762 19.0228 38.335 18.9863C38.1982 18.9453 38.0706 18.8975 37.9521 18.8428C37.8382 18.7881 37.7357 18.7288 37.6445 18.665C37.5579 18.6012 37.4896 18.5465 37.4395 18.501C37.3848 18.5557 37.321 18.6126 37.248 18.6719C37.1797 18.7311 37.1045 18.7858 37.0225 18.8359C36.9404 18.8815 36.8538 18.9202 36.7627 18.9521C36.6715 18.984 36.5781 19 36.4824 19H35.4912C35.3955 19 35.3249 18.9385 35.2793 18.8154C35.2337 18.6878 35.2109 18.5443 35.2109 18.3848C35.2109 18.2253 35.2337 18.084 35.2793 17.9609C35.3249 17.8333 35.3955 17.7695 35.4912 17.7695H36.0791C36.152 17.7695 36.2454 17.7673 36.3594 17.7627C36.4733 17.7581 36.5895 17.7467 36.708 17.7285C36.8265 17.7103 36.9359 17.6829 37.0361 17.6465C37.141 17.61 37.2184 17.5576 37.2686 17.4893C37.2868 17.4619 37.3141 17.4186 37.3506 17.3594C37.387 17.2956 37.4258 17.2295 37.4668 17.1611C37.5078 17.0882 37.5488 17.0176 37.5898 16.9492C37.6309 16.8809 37.6628 16.8262 37.6855 16.7852C37.6947 16.7669 37.7152 16.7555 37.7471 16.751C37.7835 16.7464 37.7995 16.7624 37.7949 16.7988C37.7812 16.9173 37.7835 17.0335 37.8018 17.1475C37.82 17.2614 37.8382 17.3366 37.8564 17.373C37.8975 17.4596 37.959 17.5303 38.041 17.585C38.1276 17.6396 38.221 17.6829 38.3213 17.7148C38.4215 17.7422 38.5241 17.7604 38.6289 17.7695C38.7337 17.7786 38.8271 17.7832 38.9092 17.7832C39.1143 17.7832 39.3034 17.7354 39.4766 17.6396C39.6543 17.5439 39.7956 17.4095 39.9004 17.2363C39.9186 17.209 39.9414 17.1702 39.9688 17.1201C39.9961 17.0654 40.0234 17.0085 40.0508 16.9492C40.0827 16.8854 40.1146 16.8216 40.1465 16.7578C40.1784 16.6895 40.208 16.6279 40.2354 16.5732C40.2581 16.5322 40.2878 16.5254 40.3242 16.5527C40.3607 16.5801 40.3789 16.6074 40.3789 16.6348C40.3789 16.6849 40.3743 16.7487 40.3652 16.8262C40.3561 16.8991 40.3447 16.9766 40.3311 17.0586C40.3174 17.1406 40.3014 17.2204 40.2832 17.2979C40.2695 17.3708 40.2536 17.43 40.2354 17.4756C40.2445 17.5212 40.2695 17.5645 40.3105 17.6055C40.3516 17.6419 40.4017 17.6761 40.4609 17.708C40.5202 17.7354 40.5817 17.7581 40.6455 17.7764C40.7139 17.79 40.7777 17.7969 40.8369 17.7969C41.0055 17.7969 41.1423 17.7513 41.2471 17.6602C41.3564 17.569 41.4453 17.4619 41.5137 17.3389C41.582 17.2113 41.6344 17.0837 41.6709 16.9561C41.7119 16.8239 41.7484 16.7191 41.7803 16.6416C41.7939 16.6143 41.8122 16.5983 41.835 16.5938C41.8577 16.5846 41.8783 16.5869 41.8965 16.6006C41.9193 16.6097 41.9375 16.6234 41.9512 16.6416C41.9648 16.6598 41.9694 16.6781 41.9648 16.6963C41.9284 16.833 41.901 16.9629 41.8828 17.0859C41.8691 17.209 41.8623 17.3161 41.8623 17.4072C41.8623 17.4893 41.8919 17.5553 41.9512 17.6055C42.015 17.651 42.0993 17.6875 42.2041 17.7148C42.3089 17.7376 42.432 17.7536 42.5732 17.7627C42.7145 17.7673 42.8649 17.7695 43.0244 17.7695C43.1566 17.7695 43.2523 17.8333 43.3115 17.9609C43.3753 18.084 43.4072 18.2253 43.4072 18.3848C43.4072 18.5443 43.3753 18.6878 43.3115 18.8154C43.2523 18.9385 43.1566 19 43.0244 19H42.1426ZM40.6045 15.6299L39.8936 14.8984L40.6045 14.1875L41.3359 14.8984L40.6045 15.6299ZM39.1689 15.6299L38.4375 14.8984L39.1689 14.1875L39.8799 14.8984L39.1689 15.6299ZM39.8867 14.1875L39.1758 13.4766L39.8867 12.7451L40.5977 13.4766L39.8867 14.1875ZM44.3232 17.7695C44.346 17.7695 44.3688 17.7581 44.3916 17.7354C44.4144 17.708 44.4349 17.6784 44.4531 17.6465C44.4714 17.61 44.485 17.5736 44.4941 17.5371C44.5033 17.5007 44.5078 17.471 44.5078 17.4482C44.5078 17.4163 44.4964 17.3639 44.4736 17.291C44.4554 17.2135 44.4303 17.1338 44.3984 17.0518C44.3711 16.9697 44.3415 16.8968 44.3096 16.833C44.2777 16.7646 44.2503 16.7214 44.2275 16.7031L44.6172 15.7119C44.7493 15.8851 44.8451 16.0856 44.9043 16.3135C44.9635 16.5368 44.9932 16.7601 44.9932 16.9834C44.9932 17.152 44.9749 17.3206 44.9385 17.4893C44.9066 17.6579 44.8564 17.8197 44.7881 17.9746C44.7471 18.0703 44.6833 18.1774 44.5967 18.2959C44.5146 18.4144 44.4212 18.526 44.3164 18.6309C44.2116 18.7357 44.0999 18.8245 43.9814 18.8975C43.863 18.9658 43.749 19 43.6396 19H42.6074C42.5527 19 42.5049 18.9818 42.4639 18.9453C42.4183 18.9089 42.3818 18.861 42.3545 18.8018C42.3271 18.7425 42.3066 18.6764 42.293 18.6035C42.2793 18.526 42.2725 18.4463 42.2725 18.3643C42.2725 18.2048 42.2998 18.0658 42.3545 17.9473C42.4092 17.8288 42.4935 17.7695 42.6074 17.7695H44.3232ZM44.9316 21.2764L44.2207 20.5654L44.9316 19.8545L45.6631 20.5654L44.9316 21.2764ZM43.4961 21.2764L42.7646 20.5654L43.4961 19.8545L44.207 20.5654L43.4961 21.2764ZM46.8184 11.3027C46.8275 12.1367 46.8434 12.9684 46.8662 13.7979C46.889 14.6273 46.9004 15.4613 46.9004 16.2998C46.9004 16.751 46.8799 17.1611 46.8389 17.5303C46.7979 17.8994 46.7523 18.2549 46.7021 18.5967C46.6429 18.665 46.5859 18.7357 46.5312 18.8086C46.4811 18.877 46.3945 18.9408 46.2715 19V17.9609C46.2715 17.4277 46.2624 16.931 46.2441 16.4707C46.2259 16.0104 46.2054 15.557 46.1826 15.1104C46.1644 14.6637 46.1462 14.2103 46.1279 13.75C46.1097 13.2852 46.1006 12.7861 46.1006 12.2529L46.8184 11.3027ZM58.1729 17.7695C58.2822 17.7695 58.3643 17.8333 58.4189 17.9609C58.4736 18.084 58.501 18.2253 58.501 18.3848C58.501 18.5443 58.4736 18.6878 58.4189 18.8154C58.3643 18.9385 58.2822 19 58.1729 19H57.0928C56.8968 19 56.6917 19.0068 56.4775 19.0205C56.2633 19.0387 56.0605 19.0729 55.8691 19.123C55.8464 19.1322 55.8099 19.1504 55.7598 19.1777C55.7142 19.2051 55.6914 19.2256 55.6914 19.2393C55.6914 19.2985 55.7301 19.3464 55.8076 19.3828C55.8851 19.4193 55.9831 19.4466 56.1016 19.4648C56.2201 19.4876 56.3499 19.5059 56.4912 19.5195C56.6325 19.5378 56.7669 19.556 56.8945 19.5742C57.0267 19.597 57.1429 19.6243 57.2432 19.6562C57.3434 19.6882 57.4095 19.7314 57.4414 19.7861C57.487 19.891 57.5098 19.9935 57.5098 20.0938C57.5098 20.2441 57.4528 20.4014 57.3389 20.5654C57.2249 20.7295 57.07 20.889 56.874 21.0439C56.6826 21.2035 56.457 21.3538 56.1973 21.4951C55.9375 21.6364 55.6618 21.7594 55.3701 21.8643C55.083 21.9736 54.7868 22.0602 54.4814 22.124C54.1807 22.1878 53.889 22.2197 53.6064 22.2197C53.3239 22.2197 53.0322 22.1878 52.7314 22.124C52.4352 22.0648 52.1641 21.9645 51.918 21.8232C51.6764 21.6865 51.4759 21.502 51.3164 21.2695C51.1615 21.0417 51.084 20.7568 51.084 20.415C51.084 20.2373 51.1136 20.0459 51.1729 19.8408C51.2367 19.6403 51.321 19.4375 51.4258 19.2324C51.5306 19.0319 51.6536 18.8359 51.7949 18.6445C51.9362 18.4486 52.0866 18.2708 52.2461 18.1113C52.2689 18.0885 52.2917 18.0771 52.3145 18.0771C52.3281 18.0771 52.335 18.0908 52.335 18.1182C52.2757 18.2184 52.2096 18.3392 52.1367 18.4805C52.0638 18.6172 51.9954 18.7653 51.9316 18.9248C51.8678 19.0843 51.8154 19.2484 51.7744 19.417C51.7334 19.5856 51.7129 19.7497 51.7129 19.9092C51.7129 20.2054 51.7858 20.4378 51.9316 20.6064C52.0775 20.7796 52.2598 20.9095 52.4785 20.9961C52.6973 21.0827 52.9365 21.1374 53.1963 21.1602C53.4561 21.1875 53.6999 21.2012 53.9277 21.2012C54.0645 21.2012 54.2285 21.1898 54.4199 21.167C54.6113 21.1488 54.8118 21.1214 55.0215 21.085C55.2357 21.0531 55.4476 21.012 55.6572 20.9619C55.8669 20.9163 56.0537 20.8639 56.2178 20.8047C56.3864 20.75 56.5231 20.6908 56.6279 20.627C56.7327 20.5632 56.7852 20.4971 56.7852 20.4287C56.7852 20.3695 56.7419 20.3262 56.6553 20.2988C56.5687 20.276 56.4593 20.2578 56.3271 20.2441C56.195 20.2305 56.0537 20.2145 55.9033 20.1963C55.7529 20.1781 55.6117 20.1439 55.4795 20.0938C55.3473 20.0482 55.238 19.9798 55.1514 19.8887C55.0648 19.7975 55.0215 19.6699 55.0215 19.5059C55.0215 19.2643 55.1058 19.0387 55.2744 18.8291C55.443 18.6149 55.6504 18.4303 55.8965 18.2754C56.1426 18.1159 56.4023 17.9928 56.6758 17.9062C56.9538 17.8151 57.1999 17.7695 57.4141 17.7695H58.1729ZM59.376 17.7695C59.3988 17.7695 59.4215 17.7581 59.4443 17.7354C59.4671 17.708 59.4876 17.6784 59.5059 17.6465C59.5241 17.61 59.5378 17.5736 59.5469 17.5371C59.556 17.5007 59.5605 17.471 59.5605 17.4482C59.5605 17.4163 59.5492 17.3639 59.5264 17.291C59.5081 17.2135 59.4831 17.1338 59.4512 17.0518C59.4238 16.9697 59.3942 16.8968 59.3623 16.833C59.3304 16.7646 59.3031 16.7214 59.2803 16.7031L59.6699 15.7119C59.8021 15.8851 59.8978 16.0856 59.957 16.3135C60.0163 16.5368 60.0459 16.7601 60.0459 16.9834C60.0459 17.152 60.0277 17.3206 59.9912 17.4893C59.9593 17.6579 59.9092 17.8197 59.8408 17.9746C59.7998 18.0703 59.736 18.1774 59.6494 18.2959C59.5674 18.4144 59.474 18.526 59.3691 18.6309C59.2643 18.7357 59.1527 18.8245 59.0342 18.8975C58.9157 18.9658 58.8018 19 58.6924 19H57.6602C57.6055 19 57.5576 18.9818 57.5166 18.9453C57.471 18.9089 57.4346 18.861 57.4072 18.8018C57.3799 18.7425 57.3594 18.6764 57.3457 18.6035C57.332 18.526 57.3252 18.4463 57.3252 18.3643C57.3252 18.2048 57.3525 18.0658 57.4072 17.9473C57.4619 17.8288 57.5462 17.7695 57.6602 17.7695H59.376ZM59.2666 21.2764L58.5557 20.5654L59.2666 19.8545L59.9775 20.5654L59.2666 21.2764ZM59.8682 20.5107C60.2601 20.5791 60.6566 20.6133 61.0576 20.6133C61.6683 20.6133 62.1992 20.4925 62.6504 20.251C63.1061 20.0094 63.4844 19.6152 63.7852 19.0684H63.6484C63.5208 19.0684 63.3841 19.0592 63.2383 19.041C63.0924 19.0273 62.958 18.9954 62.835 18.9453C62.7165 18.8952 62.6162 18.8223 62.5342 18.7266C62.4567 18.6309 62.418 18.5033 62.418 18.3438C62.418 18.2754 62.4316 18.1842 62.459 18.0703C62.4909 17.9518 62.5319 17.8265 62.582 17.6943C62.6367 17.5576 62.6982 17.4209 62.7666 17.2842C62.8395 17.1429 62.9147 17.0176 62.9922 16.9082C63.0742 16.7943 63.1562 16.7031 63.2383 16.6348C63.3249 16.5618 63.4092 16.5254 63.4912 16.5254C63.5915 16.5254 63.6849 16.5755 63.7715 16.6758C63.8626 16.776 63.9447 16.8945 64.0176 17.0312C64.0905 17.1634 64.152 17.3001 64.2021 17.4414C64.2568 17.5781 64.2956 17.6875 64.3184 17.7695H65.3301C65.4486 17.7695 65.5352 17.8333 65.5898 17.9609C65.6491 18.084 65.6787 18.2253 65.6787 18.3848C65.6787 18.5443 65.6491 18.6878 65.5898 18.8154C65.5352 18.9385 65.4486 19 65.3301 19H64.209C64.209 19.0547 64.1999 19.1117 64.1816 19.1709C64.168 19.2347 64.1497 19.2985 64.127 19.3623C64.1042 19.4261 64.0791 19.4854 64.0518 19.54C64.029 19.5993 64.0062 19.6517 63.9834 19.6973C63.8877 19.8887 63.7669 20.0846 63.6211 20.2852C63.4753 20.4902 63.3112 20.6771 63.1289 20.8457C62.9512 21.0189 62.7552 21.1602 62.541 21.2695C62.3268 21.3789 62.1035 21.4336 61.8711 21.4336C61.4564 21.4336 61.0827 21.363 60.75 21.2217C60.4173 21.085 60.1234 20.848 59.8682 20.5107ZM63.2246 17.4619C63.1882 17.4619 63.1517 17.4801 63.1152 17.5166C63.0788 17.5531 63.0469 17.5964 63.0195 17.6465C62.9922 17.6966 62.9694 17.749 62.9512 17.8037C62.9375 17.8538 62.9307 17.8971 62.9307 17.9336C62.9307 17.9883 62.9466 18.0339 62.9785 18.0703C63.015 18.1022 63.0583 18.1273 63.1084 18.1455C63.1631 18.1637 63.2178 18.1751 63.2725 18.1797C63.3317 18.1842 63.3818 18.1865 63.4229 18.1865C63.4456 18.1865 63.4753 18.1865 63.5117 18.1865C63.5482 18.1865 63.5824 18.1842 63.6143 18.1797C63.6507 18.1751 63.6803 18.1683 63.7031 18.1592C63.7305 18.1455 63.7441 18.1273 63.7441 18.1045C63.7441 18.0498 63.7282 17.986 63.6963 17.9131C63.6644 17.8402 63.6234 17.7718 63.5732 17.708C63.5231 17.6396 63.4661 17.5827 63.4023 17.5371C63.3431 17.487 63.2839 17.4619 63.2246 17.4619ZM64.8242 19C64.7194 19 64.6396 18.9385 64.585 18.8154C64.5303 18.6878 64.5029 18.5443 64.5029 18.3848C64.5029 18.2253 64.5303 18.084 64.585 17.9609C64.6396 17.8333 64.7194 17.7695 64.8242 17.7695C64.9427 17.7695 65.0635 17.7695 65.1865 17.7695C65.3141 17.7695 65.4349 17.7673 65.5488 17.7627C65.6673 17.7581 65.7767 17.7513 65.877 17.7422C65.9818 17.7285 66.0684 17.7126 66.1367 17.6943C66.2415 17.667 66.3236 17.6146 66.3828 17.5371C66.4466 17.4551 66.499 17.3662 66.54 17.2705C66.5811 17.1702 66.6152 17.07 66.6426 16.9697C66.6699 16.8649 66.6995 16.776 66.7314 16.7031C66.736 16.6895 66.7474 16.6803 66.7656 16.6758C66.7839 16.6667 66.8021 16.6621 66.8203 16.6621C66.8431 16.6621 66.8613 16.6689 66.875 16.6826C66.8887 16.6917 66.8932 16.7077 66.8887 16.7305C66.8796 16.8034 66.8727 16.8763 66.8682 16.9492C66.8636 17.0221 66.8613 17.07 66.8613 17.0928C66.8613 17.2523 66.9115 17.3776 67.0117 17.4688C67.1165 17.5599 67.2441 17.6283 67.3945 17.6738C67.5449 17.7148 67.7044 17.7422 67.873 17.7559C68.0462 17.765 68.1989 17.7695 68.3311 17.7695C68.445 17.7695 68.5293 17.8333 68.584 17.9609C68.6432 18.084 68.6729 18.2253 68.6729 18.3848C68.6729 18.5443 68.6432 18.6878 68.584 18.8154C68.5293 18.9385 68.445 19 68.3311 19H67.5449C67.4492 19 67.3512 18.9795 67.251 18.9385C67.1507 18.8975 67.0527 18.8405 66.957 18.7676C66.8659 18.6947 66.7793 18.6104 66.6973 18.5146C66.6198 18.4189 66.5537 18.3141 66.499 18.2002C66.458 18.2822 66.3988 18.3711 66.3213 18.4668C66.2484 18.5579 66.1641 18.6445 66.0684 18.7266C65.9772 18.804 65.8792 18.8701 65.7744 18.9248C65.6742 18.9749 65.5739 19 65.4736 19H64.8242ZM66.5469 15.8418L65.8359 15.1309L66.5469 14.4199L67.2578 15.1309L66.5469 15.8418ZM67.8047 19C67.7044 19 67.6315 18.9385 67.5859 18.8154C67.5358 18.6878 67.5107 18.5443 67.5107 18.3848C67.5107 18.2253 67.5358 18.084 67.5859 17.9609C67.6315 17.8333 67.7044 17.7695 67.8047 17.7695C67.9596 17.7695 68.1009 17.7718 68.2285 17.7764C68.3607 17.7764 68.4837 17.7764 68.5977 17.7764C68.7708 17.7764 68.9531 17.7673 69.1445 17.749C69.3359 17.7262 69.5273 17.6921 69.7188 17.6465C69.9147 17.5964 70.1084 17.5326 70.2998 17.4551C70.4912 17.3776 70.6712 17.2796 70.8398 17.1611C70.6712 17.1064 70.5094 17.0426 70.3545 16.9697C70.2041 16.8923 70.0605 16.8193 69.9238 16.751C69.7871 16.6826 69.6595 16.6257 69.541 16.5801C69.4225 16.5299 69.3086 16.5049 69.1992 16.5049C69.0853 16.5049 68.9805 16.5231 68.8848 16.5596C68.7891 16.596 68.7048 16.6348 68.6318 16.6758C68.5635 16.7168 68.5042 16.7555 68.4541 16.792C68.404 16.8285 68.3675 16.8467 68.3447 16.8467C68.3174 16.8467 68.3014 16.8398 68.2969 16.8262C68.2923 16.8125 68.29 16.7943 68.29 16.7715C68.29 16.6165 68.3219 16.457 68.3857 16.293C68.4541 16.1289 68.543 15.9785 68.6523 15.8418C68.7663 15.7051 68.8962 15.5934 69.042 15.5068C69.1924 15.4202 69.3473 15.377 69.5068 15.377C69.6436 15.377 69.7962 15.4202 69.9648 15.5068C70.1335 15.5889 70.3066 15.6846 70.4844 15.7939C70.6667 15.9033 70.8467 16.0104 71.0244 16.1152C71.2067 16.2155 71.3776 16.2861 71.5371 16.3271C71.7741 16.391 72.0111 16.4365 72.248 16.4639C72.4896 16.4912 72.7334 16.5049 72.9795 16.5049L72.6309 17.7012C72.5169 17.7012 72.3825 17.7012 72.2275 17.7012C72.0726 17.6966 71.8994 17.708 71.708 17.7354C71.5166 17.7581 71.3115 17.8037 71.0928 17.8721C70.8786 17.9359 70.653 18.0361 70.416 18.1729C70.2611 18.2594 70.097 18.3529 69.9238 18.4531C69.7507 18.5488 69.5798 18.6377 69.4111 18.7197C69.2425 18.8018 69.0807 18.8701 68.9258 18.9248C68.7708 18.9749 68.6318 19 68.5088 19H67.8047ZM70.3613 20.9346L69.6504 20.2236L70.3613 19.5127L71.0723 20.2236L70.3613 20.9346Z" fill="black"/>
<path d="M16.5693 28.6572C16.5511 28.7028 16.526 28.762 16.4941 28.835C16.4622 28.9079 16.4303 28.9899 16.3984 29.0811C16.3665 29.1676 16.3369 29.2588 16.3096 29.3545C16.2868 29.4502 16.2754 29.5436 16.2754 29.6348C16.2754 29.8216 16.3232 29.9857 16.4189 30.127C16.5192 30.2637 16.6491 30.3822 16.8086 30.4824C16.9681 30.5781 17.1458 30.6602 17.3418 30.7285C17.5423 30.7923 17.7451 30.8424 17.9502 30.8789C18.1553 30.9154 18.3512 30.9404 18.5381 30.9541C18.7249 30.9678 18.8867 30.9746 19.0234 30.9746C19.3424 30.9746 19.6683 30.9632 20.001 30.9404C20.3382 30.9131 20.6732 30.8698 21.0059 30.8105C21.3431 30.7513 21.6712 30.6738 21.9902 30.5781C22.3138 30.4779 22.6214 30.3548 22.9131 30.209C22.9085 29.9902 22.8516 29.8011 22.7422 29.6416C22.6374 29.4821 22.512 29.3499 22.3662 29.2451L22.8037 27.9258C22.863 27.9622 22.929 28.0283 23.002 28.124C23.0749 28.2197 23.1432 28.3337 23.207 28.4658C23.2708 28.598 23.3232 28.7438 23.3643 28.9033C23.4098 29.0628 23.4326 29.2269 23.4326 29.3955C23.4326 29.6689 23.3848 29.9333 23.2891 30.1885C23.1979 30.4437 23.0817 30.6875 22.9404 30.9199C22.8493 31.0658 22.708 31.1979 22.5166 31.3164C22.3298 31.4303 22.111 31.5329 21.8604 31.624C21.6097 31.7152 21.3385 31.7926 21.0469 31.8564C20.7598 31.9157 20.4681 31.9658 20.1719 32.0068C19.8802 32.0479 19.5954 32.0775 19.3174 32.0957C19.0439 32.1139 18.7956 32.123 18.5723 32.123C18.2578 32.123 17.932 32.098 17.5947 32.0479C17.2575 32.0023 16.9499 31.9111 16.6719 31.7744C16.3939 31.6377 16.1637 31.4463 15.9814 31.2002C15.8037 30.9495 15.7148 30.6237 15.7148 30.2227C15.7148 30.0723 15.7354 29.9219 15.7764 29.7715C15.8219 29.6211 15.8789 29.4798 15.9473 29.3477C16.0202 29.2109 16.0999 29.0833 16.1865 28.9648C16.2777 28.8464 16.3711 28.7415 16.4668 28.6504C16.4941 28.6276 16.5215 28.6162 16.5488 28.6162C16.5625 28.6162 16.5693 28.6299 16.5693 28.6572ZM20.3701 28.7393L19.6592 28.0283L20.3701 27.3174L21.1016 28.0283L20.3701 28.7393ZM18.9346 28.7393L18.2031 28.0283L18.9346 27.3174L19.6455 28.0283L18.9346 28.7393ZM26.29 32C26.0622 32 25.8639 31.9385 25.6953 31.8154C25.5312 31.6878 25.3923 31.5238 25.2783 31.3232C25.1689 31.1182 25.0801 30.8903 25.0117 30.6396C24.9479 30.3844 24.8978 30.1315 24.8613 29.8809C24.8249 29.6257 24.7998 29.3841 24.7861 29.1562C24.777 28.9284 24.7702 28.737 24.7656 28.582L24.6973 25.1846L25.2715 24.5352V28.0488C25.2715 28.1764 25.2806 28.3451 25.2988 28.5547C25.3171 28.7598 25.3444 28.9694 25.3809 29.1836C25.4173 29.3978 25.4606 29.6029 25.5107 29.7988C25.5609 29.9902 25.6201 30.1406 25.6885 30.25C25.8206 30.4642 25.971 30.6055 26.1396 30.6738C26.3083 30.7376 26.4928 30.7695 26.6934 30.7695H27.1172C27.181 30.7695 27.2357 30.7878 27.2812 30.8242C27.3314 30.8561 27.3724 30.9017 27.4043 30.9609C27.4408 31.0156 27.4658 31.0794 27.4795 31.1523C27.4977 31.2253 27.5068 31.3027 27.5068 31.3848C27.5068 31.4668 27.4977 31.5443 27.4795 31.6172C27.4658 31.6901 27.4408 31.7562 27.4043 31.8154C27.3724 31.8701 27.3314 31.9157 27.2812 31.9521C27.2357 31.984 27.181 32 27.1172 32H26.29ZM26.707 32C26.5885 32 26.4997 31.9385 26.4404 31.8154C26.3812 31.6878 26.3516 31.5443 26.3516 31.3848C26.3516 31.2253 26.3812 31.084 26.4404 30.9609C26.4997 30.8333 26.5885 30.7695 26.707 30.7695C26.8301 30.7695 26.9622 30.7673 27.1035 30.7627C27.2493 30.7536 27.3883 30.7376 27.5205 30.7148C27.6572 30.6875 27.7826 30.651 27.8965 30.6055C28.0104 30.5599 28.097 30.5007 28.1562 30.4277C28.2656 30.291 28.3887 30.1133 28.5254 29.8945C28.6621 29.6712 28.8079 29.4548 28.9629 29.2451C29.1178 29.0355 29.2773 28.8555 29.4414 28.7051C29.6055 28.5501 29.7695 28.4727 29.9336 28.4727C30.002 28.4727 30.0726 28.5091 30.1455 28.582C30.223 28.6504 30.2982 28.7415 30.3711 28.8555C30.4486 28.9694 30.5192 29.0947 30.583 29.2314C30.6514 29.3682 30.7106 29.5049 30.7607 29.6416C30.8154 29.7738 30.8564 29.8968 30.8838 30.0107C30.9157 30.1201 30.9316 30.2044 30.9316 30.2637C30.9316 30.3822 30.9134 30.5189 30.877 30.6738C30.8451 30.8242 30.7904 30.9678 30.7129 31.1045C30.6354 31.2412 30.5352 31.3574 30.4121 31.4531C30.2936 31.5488 30.1478 31.5967 29.9746 31.5967C29.8698 31.5967 29.7536 31.5762 29.626 31.5352C29.4984 31.4896 29.3708 31.4349 29.2432 31.3711C29.1156 31.3073 28.9925 31.2389 28.874 31.166C28.7555 31.0885 28.653 31.0156 28.5664 30.9473C28.5072 31.1022 28.4434 31.2458 28.375 31.3779C28.3112 31.5055 28.2337 31.6149 28.1426 31.7061C28.0514 31.7972 27.9421 31.8701 27.8145 31.9248C27.6868 31.9749 27.5342 32 27.3564 32H26.707ZM30.2686 30.3457C30.2686 30.2637 30.2503 30.1702 30.2139 30.0654C30.182 29.9561 30.1341 29.8535 30.0703 29.7578C30.0111 29.6621 29.9404 29.5801 29.8584 29.5117C29.7809 29.4434 29.6943 29.4092 29.5986 29.4092C29.5394 29.4092 29.4779 29.4342 29.4141 29.4844C29.3548 29.5299 29.2979 29.5869 29.2432 29.6553C29.193 29.7236 29.1452 29.7965 29.0996 29.874C29.0586 29.9469 29.0267 30.0107 29.0039 30.0654C29.0404 30.1156 29.1042 30.1702 29.1953 30.2295C29.2865 30.2887 29.3844 30.3434 29.4893 30.3936C29.5986 30.4437 29.7012 30.487 29.7969 30.5234C29.8971 30.5553 29.9723 30.5713 30.0225 30.5713C30.0908 30.5713 30.1478 30.5531 30.1934 30.5166C30.2435 30.4801 30.2686 30.4232 30.2686 30.3457ZM30.7061 33.5107C31.098 33.5791 31.4945 33.6133 31.8955 33.6133C32.5062 33.6133 33.0371 33.4925 33.4883 33.251C33.944 33.0094 34.3223 32.6152 34.623 32.0684H34.4863C34.3587 32.0684 34.222 32.0592 34.0762 32.041C33.9303 32.0273 33.7959 31.9954 33.6729 31.9453C33.5544 31.8952 33.4541 31.8223 33.3721 31.7266C33.2946 31.6309 33.2559 31.5033 33.2559 31.3438C33.2559 31.2754 33.2695 31.1842 33.2969 31.0703C33.3288 30.9518 33.3698 30.8265 33.4199 30.6943C33.4746 30.5576 33.5361 30.4209 33.6045 30.2842C33.6774 30.1429 33.7526 30.0176 33.8301 29.9082C33.9121 29.7943 33.9941 29.7031 34.0762 29.6348C34.1628 29.5618 34.2471 29.5254 34.3291 29.5254C34.4294 29.5254 34.5228 29.5755 34.6094 29.6758C34.7005 29.776 34.7826 29.8945 34.8555 30.0312C34.9284 30.1634 34.9899 30.3001 35.04 30.4414C35.0947 30.5781 35.1335 30.6875 35.1562 30.7695H36.168C36.2865 30.7695 36.373 30.8333 36.4277 30.9609C36.487 31.084 36.5166 31.2253 36.5166 31.3848C36.5166 31.5443 36.487 31.6878 36.4277 31.8154C36.373 31.9385 36.2865 32 36.168 32H35.0469C35.0469 32.0547 35.0378 32.1117 35.0195 32.1709C35.0059 32.2347 34.9876 32.2985 34.9648 32.3623C34.9421 32.4261 34.917 32.4854 34.8896 32.54C34.8669 32.5993 34.8441 32.6517 34.8213 32.6973C34.7256 32.8887 34.6048 33.0846 34.459 33.2852C34.3132 33.4902 34.1491 33.6771 33.9668 33.8457C33.7891 34.0189 33.5931 34.1602 33.3789 34.2695C33.1647 34.3789 32.9414 34.4336 32.709 34.4336C32.2943 34.4336 31.9206 34.363 31.5879 34.2217C31.2552 34.085 30.9613 33.848 30.7061 33.5107ZM34.0625 30.4619C34.026 30.4619 33.9896 30.4801 33.9531 30.5166C33.9167 30.5531 33.8848 30.5964 33.8574 30.6465C33.8301 30.6966 33.8073 30.749 33.7891 30.8037C33.7754 30.8538 33.7686 30.8971 33.7686 30.9336C33.7686 30.9883 33.7845 31.0339 33.8164 31.0703C33.8529 31.1022 33.8962 31.1273 33.9463 31.1455C34.001 31.1637 34.0557 31.1751 34.1104 31.1797C34.1696 31.1842 34.2197 31.1865 34.2607 31.1865C34.2835 31.1865 34.3132 31.1865 34.3496 31.1865C34.3861 31.1865 34.4202 31.1842 34.4521 31.1797C34.4886 31.1751 34.5182 31.1683 34.541 31.1592C34.5684 31.1455 34.582 31.1273 34.582 31.1045C34.582 31.0498 34.5661 30.986 34.5342 30.9131C34.5023 30.8402 34.4613 30.7718 34.4111 30.708C34.361 30.6396 34.304 30.5827 34.2402 30.5371C34.181 30.487 34.1217 30.4619 34.0625 30.4619ZM35.6895 32C35.5755 32 35.4912 31.9385 35.4365 31.8154C35.3818 31.6878 35.3545 31.5443 35.3545 31.3848C35.3545 31.2253 35.3818 31.084 35.4365 30.9609C35.4912 30.8333 35.5755 30.7695 35.6895 30.7695H36.0928C36.3571 30.7695 36.569 30.6943 36.7285 30.5439C36.8926 30.3936 36.9746 30.1406 36.9746 29.7852C36.9746 29.7396 36.9723 29.6872 36.9678 29.6279C36.9678 29.5687 36.9632 29.4821 36.9541 29.3682C36.945 29.2497 36.9336 29.0902 36.9199 28.8896C36.9062 28.6891 36.888 28.4225 36.8652 28.0898C36.847 27.7572 36.8242 27.347 36.7969 26.8594C36.7695 26.3672 36.7354 25.7747 36.6943 25.082L37.3506 24.3574L37.6309 29.1016C37.6491 29.4206 37.681 29.6758 37.7266 29.8672C37.7721 30.054 37.82 30.1862 37.8701 30.2637C37.9932 30.4551 38.1185 30.5872 38.2461 30.6602C38.3737 30.7331 38.5378 30.7695 38.7383 30.7695H39.0732C39.21 30.7695 39.3125 30.8333 39.3809 30.9609C39.4492 31.084 39.4834 31.2253 39.4834 31.3848C39.4834 31.5443 39.4492 31.6878 39.3809 31.8154C39.3125 31.9385 39.21 32 39.0732 32H38.5742C38.4375 32 38.2985 31.9544 38.1572 31.8633C38.0205 31.7721 37.8952 31.6628 37.7812 31.5352C37.6719 31.4076 37.5785 31.2731 37.501 31.1318C37.4235 30.9906 37.3734 30.8698 37.3506 30.7695C37.2959 30.8971 37.2321 31.0339 37.1592 31.1797C37.0908 31.3255 37.0088 31.46 36.9131 31.583C36.8174 31.7015 36.7057 31.8018 36.5781 31.8838C36.4551 31.9613 36.3115 32 36.1475 32H35.6895ZM39.4355 30.7695C39.4766 30.7695 39.5426 30.7627 39.6338 30.749C39.7249 30.7354 39.8275 30.7194 39.9414 30.7012C40.0599 30.6784 40.1807 30.651 40.3037 30.6191C40.4313 30.5872 40.5452 30.5531 40.6455 30.5166C40.7503 30.4756 40.8346 30.4346 40.8984 30.3936C40.9668 30.3525 41.001 30.3092 41.001 30.2637C41.001 30.2227 40.9531 30.1725 40.8574 30.1133C40.7663 30.054 40.6592 29.9971 40.5361 29.9424C40.4176 29.8831 40.3014 29.8307 40.1875 29.7852C40.0736 29.7396 39.9961 29.7077 39.9551 29.6895C39.9688 29.5299 40.0234 29.3704 40.1191 29.2109C40.2148 29.0469 40.3333 28.901 40.4746 28.7734C40.6204 28.6458 40.7777 28.5433 40.9463 28.4658C41.1195 28.3838 41.2881 28.3428 41.4521 28.3428C41.6071 28.3428 41.7712 28.3587 41.9443 28.3906C42.1175 28.4225 42.277 28.4795 42.4229 28.5615C42.5732 28.639 42.6963 28.7438 42.792 28.876C42.8877 29.0036 42.9355 29.1631 42.9355 29.3545C42.9355 29.473 42.9264 29.5732 42.9082 29.6553C42.8945 29.7373 42.8626 29.8148 42.8125 29.8877C42.7624 29.9561 42.694 30.0267 42.6074 30.0996C42.5208 30.168 42.4046 30.2546 42.2588 30.3594C42.3089 30.4277 42.3818 30.487 42.4775 30.5371C42.5778 30.5872 42.6872 30.6305 42.8057 30.667C42.9287 30.6989 43.054 30.724 43.1816 30.7422C43.3092 30.7604 43.4232 30.7695 43.5234 30.7695H43.9131C44.0498 30.7695 44.1523 30.8333 44.2207 30.9609C44.2891 31.084 44.3232 31.2253 44.3232 31.3848C44.3232 31.5443 44.2891 31.6878 44.2207 31.8154C44.1523 31.9385 44.0498 32 43.9131 32H43.3389C43.2021 32 43.0495 31.9727 42.8809 31.918C42.7168 31.8633 42.5505 31.7904 42.3818 31.6992C42.2178 31.6081 42.0605 31.5033 41.9102 31.3848C41.7643 31.2617 41.6436 31.1364 41.5479 31.0088C41.4066 31.1592 41.2471 31.2959 41.0693 31.4189C40.8962 31.542 40.7093 31.6468 40.5088 31.7334C40.3128 31.8154 40.11 31.8815 39.9004 31.9316C39.6908 31.9772 39.4834 32 39.2783 32H38.7314C38.6084 32 38.5173 31.9385 38.458 31.8154C38.3988 31.6878 38.3691 31.5443 38.3691 31.3848C38.3691 31.2253 38.3988 31.084 38.458 30.9609C38.5173 30.8333 38.6084 30.7695 38.7314 30.7695H39.4355ZM43.5645 32C43.446 32 43.3571 31.9385 43.2979 31.8154C43.2386 31.6878 43.209 31.5443 43.209 31.3848C43.209 31.2253 43.2386 31.084 43.2979 30.9609C43.3571 30.8333 43.446 30.7695 43.5645 30.7695C43.6875 30.7695 43.8197 30.7673 43.9609 30.7627C44.1068 30.7536 44.2458 30.7376 44.3779 30.7148C44.5146 30.6875 44.64 30.651 44.7539 30.6055C44.8678 30.5599 44.9544 30.5007 45.0137 30.4277C45.123 30.291 45.2461 30.1133 45.3828 29.8945C45.5195 29.6712 45.6654 29.4548 45.8203 29.2451C45.9753 29.0355 46.1348 28.8555 46.2988 28.7051C46.4629 28.5501 46.627 28.4727 46.791 28.4727C46.8594 28.4727 46.93 28.5091 47.0029 28.582C47.0804 28.6504 47.1556 28.7415 47.2285 28.8555C47.306 28.9694 47.3766 29.0947 47.4404 29.2314C47.5088 29.3682 47.568 29.5049 47.6182 29.6416C47.6729 29.7738 47.7139 29.8968 47.7412 30.0107C47.7731 30.1201 47.7891 30.2044 47.7891 30.2637C47.7891 30.3822 47.7708 30.5189 47.7344 30.6738C47.7025 30.8242 47.6478 30.9678 47.5703 31.1045C47.4928 31.2412 47.3926 31.3574 47.2695 31.4531C47.151 31.5488 47.0052 31.5967 46.832 31.5967C46.7272 31.5967 46.611 31.5762 46.4834 31.5352C46.3558 31.4896 46.2282 31.4349 46.1006 31.3711C45.973 31.3073 45.8499 31.2389 45.7314 31.166C45.613 31.0885 45.5104 31.0156 45.4238 30.9473C45.3646 31.1022 45.3008 31.2458 45.2324 31.3779C45.1686 31.5055 45.0911 31.6149 45 31.7061C44.9089 31.7972 44.7995 31.8701 44.6719 31.9248C44.5443 31.9749 44.3916 32 44.2139 32H43.5645ZM47.126 30.3457C47.126 30.2637 47.1077 30.1702 47.0713 30.0654C47.0394 29.9561 46.9915 29.8535 46.9277 29.7578C46.8685 29.6621 46.7979 29.5801 46.7158 29.5117C46.6383 29.4434 46.5518 29.4092 46.4561 29.4092C46.3968 29.4092 46.3353 29.4342 46.2715 29.4844C46.2122 29.5299 46.1553 29.5869 46.1006 29.6553C46.0505 29.7236 46.0026 29.7965 45.957 29.874C45.916 29.9469 45.8841 30.0107 45.8613 30.0654C45.8978 30.1156 45.9616 30.1702 46.0527 30.2295C46.1439 30.2887 46.2419 30.3434 46.3467 30.3936C46.4561 30.4437 46.5586 30.487 46.6543 30.5234C46.7546 30.5553 46.8298 30.5713 46.8799 30.5713C46.9482 30.5713 47.0052 30.5531 47.0508 30.5166C47.1009 30.4801 47.126 30.4232 47.126 30.3457ZM58.4463 30.7695C58.5557 30.7695 58.6377 30.8333 58.6924 30.9609C58.7471 31.084 58.7744 31.2253 58.7744 31.3848C58.7744 31.5443 58.7471 31.6878 58.6924 31.8154C58.6377 31.9385 58.5557 32 58.4463 32H57.3662C57.1702 32 56.9652 32.0068 56.751 32.0205C56.5368 32.0387 56.334 32.0729 56.1426 32.123C56.1198 32.1322 56.0833 32.1504 56.0332 32.1777C55.9876 32.2051 55.9648 32.2256 55.9648 32.2393C55.9648 32.2985 56.0036 32.3464 56.0811 32.3828C56.1585 32.4193 56.2565 32.4466 56.375 32.4648C56.4935 32.4876 56.6234 32.5059 56.7646 32.5195C56.9059 32.5378 57.0404 32.556 57.168 32.5742C57.3001 32.597 57.4163 32.6243 57.5166 32.6562C57.6169 32.6882 57.6829 32.7314 57.7148 32.7861C57.7604 32.891 57.7832 32.9935 57.7832 33.0938C57.7832 33.2441 57.7262 33.4014 57.6123 33.5654C57.4984 33.7295 57.3434 33.889 57.1475 34.0439C56.9561 34.2035 56.7305 34.3538 56.4707 34.4951C56.2109 34.6364 55.9352 34.7594 55.6436 34.8643C55.3564 34.9736 55.0602 35.0602 54.7549 35.124C54.4541 35.1878 54.1624 35.2197 53.8799 35.2197C53.5973 35.2197 53.3057 35.1878 53.0049 35.124C52.7087 35.0648 52.4375 34.9645 52.1914 34.8232C51.9499 34.6865 51.7493 34.502 51.5898 34.2695C51.4349 34.0417 51.3574 33.7568 51.3574 33.415C51.3574 33.2373 51.387 33.0459 51.4463 32.8408C51.5101 32.6403 51.5944 32.4375 51.6992 32.2324C51.804 32.0319 51.9271 31.8359 52.0684 31.6445C52.2096 31.4486 52.36 31.2708 52.5195 31.1113C52.5423 31.0885 52.5651 31.0771 52.5879 31.0771C52.6016 31.0771 52.6084 31.0908 52.6084 31.1182C52.5492 31.2184 52.4831 31.3392 52.4102 31.4805C52.3372 31.6172 52.2689 31.7653 52.2051 31.9248C52.1413 32.0843 52.0889 32.2484 52.0479 32.417C52.0068 32.5856 51.9863 32.7497 51.9863 32.9092C51.9863 33.2054 52.0592 33.4378 52.2051 33.6064C52.3509 33.7796 52.5332 33.9095 52.752 33.9961C52.9707 34.0827 53.21 34.1374 53.4697 34.1602C53.7295 34.1875 53.9733 34.2012 54.2012 34.2012C54.3379 34.2012 54.502 34.1898 54.6934 34.167C54.8848 34.1488 55.0853 34.1214 55.2949 34.085C55.5091 34.0531 55.721 34.012 55.9307 33.9619C56.1403 33.9163 56.3271 33.8639 56.4912 33.8047C56.6598 33.75 56.7965 33.6908 56.9014 33.627C57.0062 33.5632 57.0586 33.4971 57.0586 33.4287C57.0586 33.3695 57.0153 33.3262 56.9287 33.2988C56.8421 33.276 56.7327 33.2578 56.6006 33.2441C56.4684 33.2305 56.3271 33.2145 56.1768 33.1963C56.0264 33.1781 55.8851 33.1439 55.7529 33.0938C55.6208 33.0482 55.5114 32.9798 55.4248 32.8887C55.3382 32.7975 55.2949 32.6699 55.2949 32.5059C55.2949 32.2643 55.3792 32.0387 55.5479 31.8291C55.7165 31.6149 55.9238 31.4303 56.1699 31.2754C56.416 31.1159 56.6758 30.9928 56.9492 30.9062C57.2272 30.8151 57.4733 30.7695 57.6875 30.7695H58.4463ZM57.9062 32C57.8014 32 57.7217 31.9385 57.667 31.8154C57.6123 31.6878 57.585 31.5443 57.585 31.3848C57.585 31.2253 57.6123 31.084 57.667 30.9609C57.7217 30.8333 57.8014 30.7695 57.9062 30.7695C58.0247 30.7695 58.1455 30.7695 58.2686 30.7695C58.3962 30.7695 58.5169 30.7673 58.6309 30.7627C58.7493 30.7581 58.8587 30.7513 58.959 30.7422C59.0638 30.7285 59.1504 30.7126 59.2188 30.6943C59.3236 30.667 59.4056 30.6146 59.4648 30.5371C59.5286 30.4551 59.5811 30.3662 59.6221 30.2705C59.6631 30.1702 59.6973 30.07 59.7246 29.9697C59.752 29.8649 59.7816 29.776 59.8135 29.7031C59.818 29.6895 59.8294 29.6803 59.8477 29.6758C59.8659 29.6667 59.8841 29.6621 59.9023 29.6621C59.9251 29.6621 59.9434 29.6689 59.957 29.6826C59.9707 29.6917 59.9753 29.7077 59.9707 29.7305C59.9616 29.8034 59.9548 29.8763 59.9502 29.9492C59.9456 30.0221 59.9434 30.07 59.9434 30.0928C59.9434 30.2523 59.9935 30.3776 60.0938 30.4688C60.1986 30.5599 60.3262 30.6283 60.4766 30.6738C60.627 30.7148 60.7865 30.7422 60.9551 30.7559C61.1283 30.765 61.2809 30.7695 61.4131 30.7695C61.527 30.7695 61.6113 30.8333 61.666 30.9609C61.7253 31.084 61.7549 31.2253 61.7549 31.3848C61.7549 31.5443 61.7253 31.6878 61.666 31.8154C61.6113 31.9385 61.527 32 61.4131 32H60.627C60.5312 32 60.4333 31.9795 60.333 31.9385C60.2327 31.8975 60.1348 31.8405 60.0391 31.7676C59.9479 31.6947 59.8613 31.6104 59.7793 31.5146C59.7018 31.4189 59.6357 31.3141 59.5811 31.2002C59.54 31.2822 59.4808 31.3711 59.4033 31.4668C59.3304 31.5579 59.2461 31.6445 59.1504 31.7266C59.0592 31.804 58.9613 31.8701 58.8564 31.9248C58.7562 31.9749 58.6559 32 58.5557 32H57.9062ZM60.3467 28.8418L59.6357 28.1309L60.3467 27.4199L61.0781 28.1309L60.3467 28.8418ZM58.9111 28.8418L58.1797 28.1309L58.9111 27.4199L59.6221 28.1309L58.9111 28.8418ZM60.9141 32C60.8092 32 60.7295 31.9385 60.6748 31.8154C60.6201 31.6878 60.5928 31.5443 60.5928 31.3848C60.5928 31.2253 60.6201 31.084 60.6748 30.9609C60.7295 30.8333 60.8092 30.7695 60.9141 30.7695C61.0326 30.7695 61.1533 30.7695 61.2764 30.7695C61.404 30.7695 61.5247 30.7673 61.6387 30.7627C61.7572 30.7581 61.8665 30.7513 61.9668 30.7422C62.0716 30.7285 62.1582 30.7126 62.2266 30.6943C62.3314 30.667 62.4134 30.6146 62.4727 30.5371C62.5365 30.4551 62.5889 30.3662 62.6299 30.2705C62.6709 30.1702 62.7051 30.07 62.7324 29.9697C62.7598 29.8649 62.7894 29.776 62.8213 29.7031C62.8258 29.6895 62.8372 29.6803 62.8555 29.6758C62.8737 29.6667 62.8919 29.6621 62.9102 29.6621C62.9329 29.6621 62.9512 29.6689 62.9648 29.6826C62.9785 29.6917 62.9831 29.7077 62.9785 29.7305C62.9694 29.8034 62.9626 29.8763 62.958 29.9492C62.9535 30.0221 62.9512 30.07 62.9512 30.0928C62.9512 30.2523 63.0013 30.3776 63.1016 30.4688C63.2064 30.5599 63.334 30.6283 63.4844 30.6738C63.6348 30.7148 63.7943 30.7422 63.9629 30.7559C64.1361 30.765 64.2887 30.7695 64.4209 30.7695C64.5348 30.7695 64.6191 30.8333 64.6738 30.9609C64.7331 31.084 64.7627 31.2253 64.7627 31.3848C64.7627 31.5443 64.7331 31.6878 64.6738 31.8154C64.6191 31.9385 64.5348 32 64.4209 32H63.6348C63.5391 32 63.4411 31.9795 63.3408 31.9385C63.2406 31.8975 63.1426 31.8405 63.0469 31.7676C62.9557 31.6947 62.8691 31.6104 62.7871 31.5146C62.7096 31.4189 62.6436 31.3141 62.5889 31.2002C62.5479 31.2822 62.4886 31.3711 62.4111 31.4668C62.3382 31.5579 62.2539 31.6445 62.1582 31.7266C62.0671 31.804 61.9691 31.8701 61.8643 31.9248C61.764 31.9749 61.6637 32 61.5635 32H60.9141ZM63.293 34.2764L62.582 33.5654L63.293 32.8545L64.0244 33.5654L63.293 34.2764ZM61.8574 34.2764L61.126 33.5654L61.8574 32.8545L62.5684 33.5654L61.8574 34.2764ZM63.9492 32C63.8353 32 63.751 31.9385 63.6963 31.8154C63.6416 31.6878 63.6143 31.5443 63.6143 31.3848C63.6143 31.2253 63.6416 31.084 63.6963 30.9609C63.751 30.8333 63.8353 30.7695 63.9492 30.7695H64.3525C64.6169 30.7695 64.8288 30.6943 64.9883 30.5439C65.1523 30.3936 65.2344 30.1406 65.2344 29.7852C65.2344 29.7396 65.2321 29.6872 65.2275 29.6279C65.2275 29.5687 65.223 29.4821 65.2139 29.3682C65.2048 29.2497 65.1934 29.0902 65.1797 28.8896C65.166 28.6891 65.1478 28.4225 65.125 28.0898C65.1068 27.7572 65.084 27.347 65.0566 26.8594C65.0293 26.3672 64.9951 25.7747 64.9541 25.082L65.6104 24.3574L65.8906 29.1016C65.9089 29.4206 65.9408 29.6758 65.9863 29.8672C66.0319 30.054 66.0798 30.1862 66.1299 30.2637C66.2529 30.4551 66.3783 30.5872 66.5059 30.6602C66.6335 30.7331 66.7975 30.7695 66.998 30.7695H67.333C67.4697 30.7695 67.5723 30.8333 67.6406 30.9609C67.709 31.084 67.7432 31.2253 67.7432 31.3848C67.7432 31.5443 67.709 31.6878 67.6406 31.8154C67.5723 31.9385 67.4697 32 67.333 32H66.834C66.6973 32 66.5583 31.9544 66.417 31.8633C66.2803 31.7721 66.1549 31.6628 66.041 31.5352C65.9316 31.4076 65.8382 31.2731 65.7607 31.1318C65.6833 30.9906 65.6331 30.8698 65.6104 30.7695C65.5557 30.8971 65.4919 31.0339 65.4189 31.1797C65.3506 31.3255 65.2686 31.46 65.1729 31.583C65.0771 31.7015 64.9655 31.8018 64.8379 31.8838C64.7148 31.9613 64.5713 32 64.4072 32H63.9492ZM66.9434 32C66.8294 32 66.7451 31.9385 66.6904 31.8154C66.6357 31.6878 66.6084 31.5443 66.6084 31.3848C66.6084 31.2253 66.6357 31.084 66.6904 30.9609C66.7451 30.8333 66.8294 30.7695 66.9434 30.7695C67.1849 30.7695 67.4014 30.7695 67.5928 30.7695C67.7842 30.7695 67.9688 30.7673 68.1465 30.7627C68.3242 30.7581 68.502 30.7513 68.6797 30.7422C68.8574 30.7331 69.0534 30.7217 69.2676 30.708C69.4635 30.6943 69.6139 30.651 69.7188 30.5781C69.8281 30.5052 69.9147 30.4368 69.9785 30.373C69.9831 30.2409 69.9717 30.1156 69.9443 29.9971C69.917 29.8786 69.8783 29.7806 69.8281 29.7031C69.7005 29.8034 69.5592 29.8968 69.4043 29.9834C69.2539 30.07 69.099 30.1133 68.9395 30.1133C68.8118 30.1133 68.7002 30.0905 68.6045 30.0449C68.5088 29.9948 68.429 29.9287 68.3652 29.8467C68.3014 29.7646 68.2536 29.6712 68.2217 29.5664C68.1943 29.457 68.1807 29.3431 68.1807 29.2246C68.1807 29.1471 68.1898 29.0514 68.208 28.9375C68.2308 28.8236 68.2604 28.7028 68.2969 28.5752C68.3379 28.4476 68.388 28.32 68.4473 28.1924C68.5065 28.0648 68.5726 27.9508 68.6455 27.8506C68.7184 27.7503 68.7982 27.6683 68.8848 27.6045C68.9714 27.5407 69.0648 27.5088 69.165 27.5088C69.2835 27.5088 69.3952 27.5589 69.5 27.6592C69.6094 27.7549 69.7074 27.8802 69.7939 28.0352C69.8805 28.1855 69.958 28.3564 70.0264 28.5479C70.0947 28.7393 70.1517 28.9284 70.1973 29.1152C70.2428 29.2975 70.277 29.4684 70.2998 29.6279C70.3271 29.7874 70.3408 29.915 70.3408 30.0107C70.3408 30.3161 70.277 30.5918 70.1494 30.8379C70.0264 31.084 69.86 31.2936 69.6504 31.4668C69.4408 31.64 69.2015 31.7721 68.9326 31.8633C68.6637 31.9544 68.3857 32 68.0986 32H66.9434ZM69.0078 28.5273C68.9577 28.5273 68.903 28.5456 68.8438 28.582C68.7891 28.6185 68.7389 28.6641 68.6934 28.7188C68.6478 28.7689 68.609 28.8258 68.5771 28.8896C68.5498 28.9489 68.5361 29.0059 68.5361 29.0605C68.5361 29.1152 68.5498 29.1631 68.5771 29.2041C68.609 29.2451 68.6478 29.277 68.6934 29.2998C68.7389 29.3226 68.7891 29.3408 68.8438 29.3545C68.8984 29.3636 68.9486 29.3682 68.9941 29.3682C69.0169 29.3682 69.0534 29.3636 69.1035 29.3545C69.1536 29.3408 69.2061 29.3249 69.2607 29.3066C69.32 29.2884 69.377 29.2679 69.4316 29.2451C69.4863 29.2178 69.5296 29.1927 69.5615 29.1699C69.5479 29.1152 69.5205 29.0514 69.4795 28.9785C69.443 28.9056 69.3975 28.8372 69.3428 28.7734C69.2926 28.7051 69.238 28.6481 69.1787 28.6025C69.1195 28.5524 69.0625 28.5273 69.0078 28.5273ZM69.6572 26.709L68.9463 25.998L69.6572 25.2871L70.3887 25.998L69.6572 26.709ZM68.2217 26.709L67.4902 25.998L68.2217 25.2871L68.9326 25.998L68.2217 26.709ZM72.1797 24.3027C72.1888 25.1367 72.2048 25.9684 72.2275 26.7979C72.2503 27.6273 72.2617 28.4613 72.2617 29.2998C72.2617 29.751 72.2412 30.1611 72.2002 30.5303C72.1592 30.8994 72.1136 31.2549 72.0635 31.5967C72.0042 31.665 71.9473 31.7357 71.8926 31.8086C71.8424 31.877 71.7559 31.9408 71.6328 32V30.9609C71.6328 30.4277 71.6237 29.931 71.6055 29.4707C71.5872 29.0104 71.5667 28.557 71.5439 28.1104C71.5257 27.6637 71.5075 27.2103 71.4893 26.75C71.471 26.2852 71.4619 25.7861 71.4619 25.2529L72.1797 24.3027Z" fill="black"/>
<defs>
<filter id="filter0_d" x="6.25" y="0.249996" width="94.5" height="50.0821" filterUnits="userSpaceOnUse" color-interpolation-filters="sRGB">
<feFlood flood-opacity="0" result="BackgroundImageFix"/>
<feColorMatrix in="SourceAlpha" type="matrix" values="0 0 0 0 0 0 0 0 0 0 0 0 0 0 0 0 0 0 127 0"/>
<feOffset dy="2"/>
<feGaussianBlur stdDeviation="2"/>
<feColorMatrix type="matrix" values="0 0 0 0 0 0 0 0 0 0 0 0 0 0 0 0 0 0 0.25 0"/>
<feBlend mode="normal" in2="BackgroundImageFix" result="effect1_dropShadow"/>
<feBlend mode="normal" in="SourceGraphic" in2="effect1_dropShadow" result="shape"/>
</filter>
</defs>
</svg>
