<svg width="76" height="43" viewBox="0 0 76 43" fill="none" xmlns="http://www.w3.org/2000/svg">
<path d="M54.0436 40.4449L6.02251 40.4449C3.36393 40.4449 1.19787 38.2979 1.19787 35.6168L1.19787 7.07639C1.19787 4.41433 3.36393 2.25 6.02252 2.25L54.0436 2.25C56.7039 2.25 58.8683 4.41433 58.8683 7.07639L58.8683 15.3192L70.9733 13.6179L75.1979 20.933L70.9733 28.2532L58.8683 26.5536L58.8683 35.6202C58.8665 38.2979 56.7039 40.4449 54.0436 40.4449Z" fill="#F2ECEC" stroke="#F1DABE" stroke-width="1.5" stroke-miterlimit="10" stroke-linecap="round" stroke-linejoin="round"/>
<path d="M9.22462 14.2246C9.19858 14.2897 9.16277 14.3743 9.1172 14.4785C9.07162 14.5827 9.02605 14.6999 8.98048 14.8301C8.9349 14.9538 8.89259 15.084 8.85352 15.2207C8.82097 15.3574 8.8047 15.4909 8.8047 15.6211C8.8047 15.888 8.87305 16.1224 9.00977 16.3242C9.153 16.5195 9.33855 16.6888 9.56641 16.832C9.79428 16.9688 10.0482 17.0859 10.3281 17.1836C10.6146 17.2747 10.9043 17.3464 11.1973 17.3984C11.4902 17.4505 11.7702 17.4863 12.0371 17.5059C12.304 17.5254 12.5352 17.5352 12.7305 17.5352C13.1862 17.5352 13.6517 17.5189 14.127 17.4863C14.6087 17.4473 15.0872 17.3854 15.5625 17.3008C16.0443 17.2161 16.513 17.1055 16.9688 16.9688C17.431 16.8255 17.8705 16.6497 18.2871 16.4414C18.2806 16.1289 18.1992 15.8587 18.043 15.6309C17.8932 15.403 17.7142 15.2142 17.5059 15.0645L18.1309 13.1797C18.2155 13.2318 18.3099 13.3262 18.4141 13.4629C18.5182 13.5996 18.6159 13.7624 18.707 13.9512C18.7982 14.14 18.8731 14.3483 18.9316 14.5762C18.9968 14.804 19.0293 15.0384 19.0293 15.2793C19.0293 15.6699 18.9609 16.0475 18.8242 16.4121C18.694 16.7767 18.528 17.125 18.3262 17.457C18.196 17.6654 17.9941 17.8542 17.7207 18.0234C17.4538 18.1862 17.1413 18.3327 16.7832 18.4629C16.4251 18.5931 16.0378 18.7038 15.6211 18.7949C15.2109 18.8796 14.7943 18.9512 14.3711 19.0098C13.9544 19.0684 13.5475 19.1107 13.1504 19.1367C12.7598 19.1628 12.405 19.1758 12.0859 19.1758C11.6367 19.1758 11.1712 19.14 10.6895 19.0684C10.2077 19.0033 9.76824 18.873 9.3711 18.6777C8.97397 18.4824 8.64519 18.209 8.38477 17.8574C8.13087 17.4993 8.00391 17.0339 8.00391 16.4609C8.00391 16.2461 8.03321 16.0312 8.0918 15.8164C8.15691 15.6016 8.23829 15.3997 8.33595 15.2109C8.44011 15.0156 8.55404 14.8333 8.67774 14.6641C8.80795 14.4948 8.94141 14.3451 9.07813 14.2148C9.1172 14.1823 9.15626 14.166 9.19532 14.166C9.21485 14.166 9.22462 14.1855 9.22462 14.2246ZM14.6543 14.3418L13.6387 13.3262L14.6543 12.3105L15.6992 13.3262L14.6543 14.3418ZM12.6035 14.3418L11.5586 13.3262L12.6035 12.3105L13.6191 13.3262L12.6035 14.3418ZM23.1113 19C22.7858 19 22.5026 18.9121 22.2617 18.7363C22.0274 18.554 21.8288 18.3197 21.666 18.0332C21.5098 17.7402 21.3828 17.4147 21.2852 17.0566C21.194 16.6921 21.1224 16.3307 21.0703 15.9727C21.0182 15.6081 20.9824 15.263 20.9629 14.9375C20.9499 14.612 20.9401 14.3385 20.9336 14.1172L20.8359 9.26367L21.6563 8.33594V13.3555C21.6563 13.5378 21.6693 13.7786 21.6953 14.0781C21.7214 14.3711 21.7604 14.6706 21.8125 14.9766C21.8646 15.2826 21.9264 15.5755 21.9981 15.8555C22.0697 16.1289 22.1543 16.3438 22.252 16.5C22.4408 16.806 22.6556 17.0078 22.8965 17.1055C23.1374 17.1966 23.401 17.2422 23.6875 17.2422H24.293C24.3841 17.2422 24.4622 17.2682 24.5274 17.3203C24.599 17.3659 24.6576 17.431 24.7031 17.5156C24.7552 17.5938 24.791 17.6849 24.8106 17.7891C24.8366 17.8932 24.8496 18.0039 24.8496 18.1211C24.8496 18.2383 24.8366 18.349 24.8106 18.4531C24.791 18.5573 24.7552 18.6517 24.7031 18.7363C24.6576 18.8145 24.599 18.8796 24.5274 18.9316C24.4622 18.9772 24.3841 19 24.293 19H23.1113ZM23.707 19C23.5378 19 23.4108 18.9121 23.3262 18.7363C23.2415 18.554 23.1992 18.349 23.1992 18.1211C23.1992 17.8932 23.2415 17.6914 23.3262 17.5156C23.4108 17.3333 23.5378 17.2422 23.707 17.2422C23.8828 17.2422 24.0716 17.2389 24.2734 17.2324C24.4818 17.2194 24.6803 17.1966 24.8691 17.1641C25.0645 17.125 25.2435 17.0729 25.4063 17.0078C25.569 16.9427 25.6927 16.8581 25.7774 16.7539C25.9336 16.5586 26.1094 16.3047 26.3047 15.9922C26.5 15.6732 26.7083 15.3639 26.9297 15.0645C27.151 14.765 27.3789 14.5078 27.6133 14.293C27.8477 14.0716 28.082 13.9609 28.3164 13.9609C28.4141 13.9609 28.515 14.013 28.6191 14.1172C28.7298 14.2148 28.8372 14.3451 28.9414 14.5078C29.0521 14.6706 29.153 14.8496 29.2441 15.0449C29.3418 15.2402 29.4264 15.4355 29.4981 15.6309C29.5762 15.8197 29.6348 15.9954 29.6738 16.1582C29.7194 16.3145 29.7422 16.4349 29.7422 16.5195C29.7422 16.6888 29.7162 16.8841 29.6641 17.1055C29.6185 17.3203 29.5404 17.5254 29.4297 17.7207C29.319 17.916 29.1758 18.082 29 18.2188C28.8307 18.3555 28.6224 18.4238 28.375 18.4238C28.2253 18.4238 28.0593 18.3945 27.877 18.3359C27.6947 18.2708 27.5124 18.1927 27.3301 18.1016C27.1478 18.0104 26.972 17.9128 26.8027 17.8086C26.6335 17.6979 26.487 17.5938 26.3633 17.4961C26.2787 17.7174 26.1875 17.9225 26.0899 18.1113C25.9987 18.2936 25.888 18.4499 25.7578 18.5801C25.6276 18.7103 25.4714 18.8145 25.2891 18.8926C25.1068 18.9642 24.8887 19 24.6348 19H23.707ZM28.7949 16.6367C28.7949 16.5195 28.7689 16.3861 28.7168 16.2363C28.6712 16.0801 28.6029 15.9336 28.5117 15.7969C28.4271 15.6602 28.3262 15.543 28.209 15.4453C28.0983 15.3477 27.9746 15.2988 27.8379 15.2988C27.7533 15.2988 27.6654 15.3346 27.5742 15.4062C27.4896 15.4714 27.4082 15.5527 27.3301 15.6504C27.2585 15.748 27.1901 15.8522 27.125 15.9629C27.0664 16.0671 27.0208 16.1582 26.9883 16.2363C27.0404 16.3079 27.1315 16.3861 27.2617 16.4707C27.3919 16.5553 27.5319 16.6335 27.6816 16.7051C27.8379 16.7767 27.9844 16.8385 28.1211 16.8906C28.2643 16.9362 28.3718 16.959 28.4434 16.959C28.541 16.959 28.6224 16.9329 28.6875 16.8809C28.7591 16.8288 28.7949 16.7474 28.7949 16.6367ZM29.4199 21.1582C29.9798 21.2559 30.5462 21.3047 31.1191 21.3047C31.9915 21.3047 32.75 21.1322 33.3945 20.7871C34.0456 20.4421 34.5859 19.8789 35.0156 19.0977H34.8203C34.638 19.0977 34.4427 19.0846 34.2344 19.0586C34.026 19.0391 33.834 18.9935 33.6582 18.9219C33.4889 18.8503 33.3457 18.7461 33.2285 18.6094C33.1178 18.4727 33.0625 18.2904 33.0625 18.0625C33.0625 17.9648 33.082 17.8346 33.1211 17.6719C33.1667 17.5026 33.2253 17.3236 33.2969 17.1348C33.375 16.9395 33.4629 16.7441 33.5606 16.5488C33.6647 16.347 33.7721 16.168 33.8828 16.0117C34 15.849 34.1172 15.7188 34.2344 15.6211C34.3581 15.5169 34.4785 15.4648 34.5957 15.4648C34.7389 15.4648 34.8724 15.5365 34.9961 15.6797C35.1263 15.8229 35.2435 15.9922 35.3477 16.1875C35.4518 16.3763 35.5397 16.5716 35.6113 16.7734C35.6895 16.9688 35.7448 17.125 35.7774 17.2422H37.2227C37.3919 17.2422 37.5156 17.3333 37.5938 17.5156C37.6784 17.6914 37.7207 17.8932 37.7207 18.1211C37.7207 18.349 37.6784 18.554 37.5938 18.7363C37.5156 18.9121 37.3919 19 37.2227 19H35.6211C35.6211 19.0781 35.6081 19.1595 35.582 19.2441C35.5625 19.3353 35.5365 19.4264 35.5039 19.5176C35.4714 19.6087 35.4356 19.6934 35.3965 19.7715C35.3639 19.8561 35.3314 19.931 35.2988 19.9961C35.1621 20.2695 34.9896 20.5495 34.7813 20.8359C34.5729 21.1289 34.3385 21.3958 34.0781 21.6367C33.8242 21.8841 33.5443 22.0859 33.2383 22.2422C32.9323 22.3984 32.6133 22.4766 32.2813 22.4766C31.6888 22.4766 31.155 22.3757 30.6797 22.1738C30.2044 21.9785 29.7845 21.64 29.4199 21.1582ZM34.2149 16.8027C34.1628 16.8027 34.1107 16.8288 34.0586 16.8809C34.0065 16.9329 33.9609 16.9948 33.9219 17.0664C33.8828 17.138 33.8503 17.2129 33.8242 17.291C33.8047 17.3626 33.7949 17.4245 33.7949 17.4766C33.7949 17.5547 33.8177 17.6198 33.8633 17.6719C33.9154 17.7174 33.9772 17.7533 34.0488 17.7793C34.127 17.8053 34.2051 17.8216 34.2832 17.8281C34.3678 17.8346 34.4395 17.8379 34.4981 17.8379C34.5306 17.8379 34.5729 17.8379 34.625 17.8379C34.6771 17.8379 34.7259 17.8346 34.7715 17.8281C34.8236 17.8216 34.8659 17.8118 34.8984 17.7988C34.9375 17.7793 34.957 17.7533 34.957 17.7207C34.957 17.6426 34.9343 17.5514 34.8887 17.4473C34.8431 17.3431 34.7845 17.2454 34.7129 17.1543C34.6413 17.0566 34.5599 16.9753 34.4688 16.9102C34.3841 16.8385 34.2995 16.8027 34.2149 16.8027ZM36.5391 19C36.3763 19 36.2559 18.9121 36.1777 18.7363C36.0996 18.554 36.0606 18.349 36.0606 18.1211C36.0606 17.8932 36.0996 17.6914 36.1777 17.5156C36.2559 17.3333 36.3763 17.2422 36.5391 17.2422H37.1152C37.4928 17.2422 37.7956 17.1348 38.0234 16.9199C38.2578 16.7051 38.375 16.3438 38.375 15.8359C38.375 15.7708 38.3718 15.696 38.3652 15.6113C38.3652 15.5267 38.3587 15.403 38.3457 15.2402C38.3327 15.071 38.3164 14.8431 38.2969 14.5566C38.2774 14.2702 38.2513 13.8893 38.2188 13.4141C38.1927 12.9388 38.1602 12.3529 38.1211 11.6562C38.082 10.9531 38.0332 10.1068 37.9746 9.11719L38.9121 8.08203L39.3125 14.8594C39.3385 15.3151 39.3841 15.6797 39.4492 15.9531C39.5143 16.2201 39.5827 16.4089 39.6543 16.5195C39.8301 16.793 40.0091 16.9818 40.1914 17.0859C40.3737 17.1901 40.6081 17.2422 40.8945 17.2422H41.3731C41.5684 17.2422 41.7149 17.3333 41.8125 17.5156C41.9102 17.6914 41.959 17.8932 41.959 18.1211C41.959 18.349 41.9102 18.554 41.8125 18.7363C41.7149 18.9121 41.5684 19 41.3731 19H40.6602C40.4649 19 40.2663 18.9349 40.0645 18.8047C39.8691 18.6745 39.6901 18.5182 39.5274 18.3359C39.3711 18.1536 39.2376 17.9616 39.127 17.7598C39.0163 17.5579 38.9447 17.3854 38.9121 17.2422C38.834 17.4245 38.7428 17.6198 38.6387 17.8281C38.541 18.0365 38.4238 18.2285 38.2871 18.4043C38.1504 18.5736 37.9909 18.7168 37.8086 18.834C37.6328 18.9447 37.4277 19 37.1934 19H36.5391ZM41.8906 17.2422C41.9492 17.2422 42.0436 17.2324 42.1738 17.2129C42.304 17.1934 42.4505 17.1706 42.6133 17.1445C42.7826 17.112 42.9551 17.0729 43.1309 17.0273C43.3132 16.9818 43.4759 16.9329 43.6191 16.8809C43.7689 16.8223 43.8893 16.7637 43.9805 16.7051C44.0781 16.6465 44.127 16.5846 44.127 16.5195C44.127 16.4609 44.0586 16.3893 43.9219 16.3047C43.7917 16.2201 43.6387 16.1387 43.4629 16.0605C43.2936 15.9759 43.1276 15.901 42.9649 15.8359C42.8021 15.7708 42.6914 15.7253 42.6328 15.6992C42.6524 15.4714 42.7305 15.2435 42.8672 15.0156C43.0039 14.7812 43.1732 14.5729 43.375 14.3906C43.5833 14.2083 43.808 14.0618 44.0488 13.9512C44.2962 13.834 44.5371 13.7754 44.7715 13.7754C44.9928 13.7754 45.2272 13.7982 45.4746 13.8438C45.722 13.8893 45.9499 13.9707 46.1582 14.0879C46.3731 14.1986 46.5488 14.3483 46.6856 14.5371C46.8223 14.7194 46.8906 14.9473 46.8906 15.2207C46.8906 15.39 46.8776 15.5332 46.8516 15.6504C46.832 15.7676 46.7865 15.8783 46.7149 15.9824C46.6432 16.0801 46.5456 16.181 46.4219 16.2852C46.2982 16.3828 46.1322 16.5065 45.9238 16.6562C45.9955 16.7539 46.0996 16.8385 46.2363 16.9102C46.3796 16.9818 46.5358 17.0436 46.7051 17.0957C46.8809 17.1413 47.0599 17.1771 47.2422 17.2031C47.4245 17.2292 47.5872 17.2422 47.7305 17.2422H48.2871C48.4824 17.2422 48.6289 17.3333 48.7266 17.5156C48.8242 17.6914 48.8731 17.8932 48.8731 18.1211C48.8731 18.349 48.8242 18.554 48.7266 18.7363C48.6289 18.9121 48.4824 19 48.2871 19H47.4668C47.2715 19 47.0534 18.9609 46.8125 18.8828C46.5781 18.8047 46.3405 18.7005 46.0996 18.5703C45.8652 18.4401 45.6406 18.2904 45.4258 18.1211C45.2175 17.9453 45.0449 17.7663 44.9082 17.584C44.7064 17.7988 44.4785 17.9941 44.2246 18.1699C43.9772 18.3457 43.7103 18.4954 43.4238 18.6191C43.1439 18.7363 42.8542 18.8307 42.5547 18.9023C42.2552 18.9674 41.959 19 41.666 19H40.8848C40.709 19 40.5788 18.9121 40.4941 18.7363C40.4095 18.554 40.3672 18.349 40.3672 18.1211C40.3672 17.8932 40.4095 17.6914 40.4941 17.5156C40.5788 17.3333 40.709 17.2422 40.8848 17.2422H41.8906ZM47.7891 19C47.6198 19 47.4928 18.9121 47.4082 18.7363C47.3236 18.554 47.2813 18.349 47.2813 18.1211C47.2813 17.8932 47.3236 17.6914 47.4082 17.5156C47.4928 17.3333 47.6198 17.2422 47.7891 17.2422C47.9649 17.2422 48.1537 17.2389 48.3555 17.2324C48.5638 17.2194 48.7624 17.1966 48.9512 17.1641C49.1465 17.125 49.3255 17.0729 49.4883 17.0078C49.651 16.9427 49.7747 16.8581 49.8594 16.7539C50.0156 16.5586 50.1914 16.3047 50.3867 15.9922C50.582 15.6732 50.7904 15.3639 51.0117 15.0645C51.2331 14.765 51.4609 14.5078 51.6953 14.293C51.9297 14.0716 52.1641 13.9609 52.3984 13.9609C52.4961 13.9609 52.597 14.013 52.7012 14.1172C52.8119 14.2148 52.9193 14.3451 53.0234 14.5078C53.1341 14.6706 53.235 14.8496 53.3262 15.0449C53.4238 15.2402 53.5085 15.4355 53.5801 15.6309C53.6582 15.8197 53.7168 15.9954 53.7559 16.1582C53.8014 16.3145 53.8242 16.4349 53.8242 16.5195C53.8242 16.6888 53.7982 16.8841 53.7461 17.1055C53.7005 17.3203 53.6224 17.5254 53.5117 17.7207C53.401 17.916 53.2578 18.082 53.082 18.2188C52.9128 18.3555 52.7044 18.4238 52.457 18.4238C52.3073 18.4238 52.1413 18.3945 51.959 18.3359C51.7767 18.2708 51.5944 18.1927 51.4121 18.1016C51.2298 18.0104 51.054 17.9128 50.8848 17.8086C50.7155 17.6979 50.569 17.5938 50.4453 17.4961C50.3607 17.7174 50.2695 17.9225 50.1719 18.1113C50.0807 18.2936 49.9701 18.4499 49.8399 18.5801C49.7096 18.7103 49.5534 18.8145 49.3711 18.8926C49.1888 18.9642 48.9707 19 48.7168 19H47.7891ZM52.877 16.6367C52.877 16.5195 52.8509 16.3861 52.7988 16.2363C52.7533 16.0801 52.6849 15.9336 52.5938 15.7969C52.5091 15.6602 52.4082 15.543 52.291 15.4453C52.1803 15.3477 52.0566 15.2988 51.9199 15.2988C51.8353 15.2988 51.7474 15.3346 51.6563 15.4062C51.5716 15.4714 51.4902 15.5527 51.4121 15.6504C51.3405 15.748 51.2721 15.8522 51.207 15.9629C51.1484 16.0671 51.1029 16.1582 51.0703 16.2363C51.1224 16.3079 51.2135 16.3861 51.3438 16.4707C51.474 16.5553 51.6139 16.6335 51.7637 16.7051C51.9199 16.7767 52.0664 16.8385 52.2031 16.8906C52.3464 16.9362 52.4538 16.959 52.5254 16.959C52.6231 16.959 52.7044 16.9329 52.7695 16.8809C52.8412 16.8288 52.877 16.7474 52.877 16.6367Z" fill="black"/>
<path d="M17.2988 32.6035C16.9994 32.8639 16.6445 33.0983 16.2344 33.3066C15.8307 33.5085 15.3848 33.6842 14.8965 33.834C14.4082 33.9772 13.8841 34.0879 13.3242 34.166C12.7708 34.2441 12.1947 34.2832 11.5957 34.2832C11.1725 34.2832 10.7428 34.2409 10.3066 34.1562C9.87696 34.0716 9.48634 33.9284 9.13477 33.7266C8.78972 33.5182 8.50652 33.248 8.28516 32.916C8.06381 32.5775 7.95313 32.1576 7.95313 31.6562C7.95313 31.2591 8.0573 30.8783 8.26563 30.5137C8.48048 30.1426 8.74415 29.8171 9.05665 29.5371C9.06967 29.5241 9.09246 29.5273 9.12501 29.5469C9.15756 29.5664 9.16733 29.5892 9.1543 29.6152C9.12826 29.6738 9.09246 29.7389 9.04688 29.8105C9.00131 29.8757 8.95574 29.9538 8.91016 30.0449C8.8711 30.1361 8.83529 30.2467 8.80274 30.377C8.77019 30.5007 8.75391 30.6536 8.75391 30.8359C8.75391 31.0964 8.82553 31.321 8.96876 31.5098C9.11199 31.6921 9.29753 31.8483 9.5254 31.9785C9.75326 32.1022 10.0104 32.1999 10.2969 32.2715C10.5833 32.3431 10.8698 32.3984 11.1563 32.4375C11.4492 32.4766 11.7292 32.5026 11.9961 32.5156C12.263 32.5286 12.4909 32.5352 12.6797 32.5352C12.9401 32.5352 13.2233 32.5189 13.5293 32.4863C13.8353 32.4538 14.1478 32.4049 14.4668 32.3398C14.7858 32.2747 15.1048 32.1901 15.4238 32.0859C15.7494 31.9818 16.0553 31.8581 16.3418 31.7148C16.6283 31.5651 16.8887 31.3991 17.1231 31.2168C17.3639 31.028 17.5625 30.8164 17.7188 30.582C17.7578 30.582 17.7774 30.5983 17.7774 30.6309C17.7774 30.7936 17.7969 30.9694 17.8359 31.1582C17.8815 31.347 17.9401 31.5228 18.0117 31.6855C18.0899 31.8483 18.181 31.9818 18.2852 32.0859C18.3893 32.1901 18.5065 32.2422 18.6367 32.2422H19.3594C19.5482 32.2422 19.6882 32.3333 19.7793 32.5156C19.8705 32.6914 19.916 32.8932 19.916 33.1211C19.916 33.349 19.8705 33.554 19.7793 33.7363C19.6882 33.9121 19.5482 34 19.3594 34H18.6953C18.513 34 18.3405 33.9577 18.1777 33.873C18.0215 33.7884 17.8815 33.681 17.7578 33.5508C17.6406 33.4141 17.543 33.2643 17.4649 33.1016C17.3867 32.9323 17.3314 32.7663 17.2988 32.6035ZM14.3203 29.9082L13.3047 28.8926L14.3203 27.877L15.3652 28.8926L14.3203 29.9082ZM12.2695 29.9082L11.2246 28.8926L12.2695 27.877L13.2852 28.8926L12.2695 29.9082ZM18.7344 34C18.5846 34 18.4707 33.9121 18.3926 33.7363C18.3145 33.554 18.2754 33.349 18.2754 33.1211C18.2754 32.8932 18.3145 32.6914 18.3926 32.5156C18.4707 32.3333 18.5846 32.2422 18.7344 32.2422C18.9037 32.2422 19.0762 32.2422 19.252 32.2422C19.4343 32.2422 19.6068 32.2389 19.7695 32.2324C19.9388 32.2259 20.0951 32.2161 20.2383 32.2031C20.388 32.1836 20.5117 32.1608 20.6094 32.1348C20.7591 32.0957 20.8763 32.0208 20.9609 31.9102C21.0521 31.793 21.127 31.666 21.1856 31.5293C21.2441 31.3861 21.293 31.2428 21.332 31.0996C21.3711 30.9499 21.4134 30.8229 21.459 30.7188C21.4655 30.6992 21.4818 30.6862 21.5078 30.6797C21.5339 30.6667 21.5599 30.6602 21.5859 30.6602C21.6185 30.6602 21.6445 30.6699 21.6641 30.6895C21.6836 30.7025 21.6901 30.7253 21.6836 30.7578C21.6706 30.862 21.6608 30.9661 21.6543 31.0703C21.6478 31.1745 21.6445 31.2428 21.6445 31.2754C21.6445 31.5033 21.7162 31.6823 21.8594 31.8125C22.0091 31.9427 22.1914 32.0404 22.4063 32.1055C22.6211 32.1641 22.849 32.2031 23.0899 32.2227C23.3372 32.2357 23.5553 32.2422 23.7441 32.2422C23.9069 32.2422 24.0274 32.3333 24.1055 32.5156C24.1901 32.6914 24.2324 32.8932 24.2324 33.1211C24.2324 33.349 24.1901 33.554 24.1055 33.7363C24.0274 33.9121 23.9069 34 23.7441 34H22.6211C22.4844 34 22.3444 33.9707 22.2012 33.9121C22.058 33.8535 21.918 33.7721 21.7813 33.668C21.651 33.5638 21.5274 33.4434 21.4102 33.3066C21.2995 33.1699 21.2051 33.0202 21.127 32.8574C21.0684 32.9746 20.9837 33.1016 20.8731 33.2383C20.7689 33.3685 20.6484 33.4922 20.5117 33.6094C20.3815 33.7201 20.2415 33.8145 20.0918 33.8926C19.9486 33.9642 19.8053 34 19.6621 34H18.7344ZM22.1328 37.252L21.1172 36.2363L22.1328 35.2207L23.1777 36.2363L22.1328 37.252ZM20.082 37.252L19.0371 36.2363L20.082 35.2207L21.0977 36.2363L20.082 37.252ZM23.0703 34C22.9076 34 22.7871 33.9121 22.709 33.7363C22.6309 33.554 22.5918 33.349 22.5918 33.1211C22.5918 32.8932 22.6309 32.6914 22.709 32.5156C22.7871 32.3333 22.9076 32.2422 23.0703 32.2422H23.6465C24.0241 32.2422 24.3268 32.1348 24.5547 31.9199C24.7891 31.7051 24.9063 31.3438 24.9063 30.8359C24.9063 30.7708 24.903 30.696 24.8965 30.6113C24.8965 30.5267 24.89 30.403 24.877 30.2402C24.8639 30.071 24.8477 29.8431 24.8281 29.5566C24.8086 29.2702 24.7826 28.8893 24.75 28.4141C24.724 27.9388 24.6914 27.3529 24.6524 26.6562C24.6133 25.9531 24.5645 25.1068 24.5059 24.1172L25.4434 23.082L25.8438 29.8594C25.8698 30.3151 25.9154 30.6797 25.9805 30.9531C26.0456 31.2201 26.1139 31.4089 26.1856 31.5195C26.3613 31.793 26.5404 31.9818 26.7227 32.0859C26.905 32.1901 27.1393 32.2422 27.4258 32.2422H27.9043C28.0996 32.2422 28.2461 32.3333 28.3438 32.5156C28.4414 32.6914 28.4902 32.8932 28.4902 33.1211C28.4902 33.349 28.4414 33.554 28.3438 33.7363C28.2461 33.9121 28.0996 34 27.9043 34H27.1914C26.9961 34 26.7975 33.9349 26.5957 33.8047C26.4004 33.6745 26.2214 33.5182 26.0586 33.3359C25.9024 33.1536 25.7689 32.9616 25.6582 32.7598C25.5475 32.5579 25.4759 32.3854 25.4434 32.2422C25.3652 32.4245 25.2741 32.6198 25.1699 32.8281C25.0723 33.0365 24.9551 33.2285 24.8184 33.4043C24.6816 33.5736 24.5221 33.7168 24.3399 33.834C24.1641 33.9447 23.959 34 23.7246 34H23.0703ZM27.3477 34C27.1849 34 27.0645 33.9121 26.9863 33.7363C26.9082 33.554 26.8691 33.349 26.8691 33.1211C26.8691 32.8932 26.9082 32.6914 26.9863 32.5156C27.0645 32.3333 27.1849 32.2422 27.3477 32.2422C27.6927 32.2422 28.002 32.2422 28.2754 32.2422C28.5488 32.2422 28.8125 32.2389 29.0664 32.2324C29.3203 32.2259 29.5742 32.2161 29.8281 32.2031C30.082 32.1901 30.362 32.1738 30.668 32.1543C30.9479 32.1348 31.1628 32.0729 31.3125 31.9688C31.4688 31.8646 31.5925 31.7669 31.6836 31.6758C31.6901 31.487 31.6738 31.3079 31.6348 31.1387C31.5957 30.9694 31.5404 30.8294 31.4688 30.7188C31.2865 30.862 31.0846 30.9954 30.8633 31.1191C30.6484 31.2428 30.4271 31.3047 30.1992 31.3047C30.0169 31.3047 29.8574 31.2721 29.7207 31.207C29.584 31.1354 29.4701 31.041 29.3789 30.9238C29.2878 30.8066 29.2194 30.6732 29.1738 30.5234C29.1348 30.3672 29.1152 30.2044 29.1152 30.0352C29.1152 29.9245 29.1283 29.7878 29.1543 29.625C29.1869 29.4622 29.2292 29.2897 29.2813 29.1074C29.3399 28.9251 29.4115 28.7428 29.4961 28.5605C29.5807 28.3783 29.6751 28.2155 29.7793 28.0723C29.8835 27.929 29.9974 27.8118 30.1211 27.7207C30.2448 27.6296 30.3783 27.584 30.5215 27.584C30.6908 27.584 30.8503 27.6556 31 27.7988C31.1563 27.9355 31.2962 28.1146 31.4199 28.3359C31.5436 28.5508 31.6543 28.7949 31.752 29.0684C31.8496 29.3418 31.931 29.612 31.9961 29.8789C32.0612 30.1393 32.11 30.3835 32.1426 30.6113C32.1816 30.8392 32.2012 31.0215 32.2012 31.1582C32.2012 31.5944 32.11 31.9883 31.9277 32.3398C31.752 32.6914 31.5143 32.9909 31.2149 33.2383C30.9154 33.4857 30.5736 33.6745 30.1895 33.8047C29.8053 33.9349 29.4082 34 28.9981 34H27.3477ZM30.2969 29.0391C30.2253 29.0391 30.1471 29.0651 30.0625 29.1172C29.9844 29.1693 29.9128 29.2344 29.8477 29.3125C29.7826 29.3841 29.7272 29.4655 29.6816 29.5566C29.6426 29.6413 29.6231 29.7227 29.6231 29.8008C29.6231 29.8789 29.6426 29.9473 29.6816 30.0059C29.7272 30.0645 29.7826 30.11 29.8477 30.1426C29.9128 30.1751 29.9844 30.2012 30.0625 30.2207C30.1406 30.2337 30.2122 30.2402 30.2774 30.2402C30.3099 30.2402 30.362 30.2337 30.4336 30.2207C30.5052 30.2012 30.5801 30.1784 30.6582 30.1523C30.7428 30.1263 30.8242 30.097 30.9024 30.0645C30.9805 30.0254 31.0423 29.9896 31.0879 29.957C31.0684 29.8789 31.0293 29.7878 30.9707 29.6836C30.9186 29.5794 30.8535 29.4818 30.7754 29.3906C30.7038 29.293 30.6257 29.2116 30.541 29.1465C30.4564 29.0749 30.375 29.0391 30.2969 29.0391ZM31.2246 26.4414L30.209 25.4258L31.2246 24.4102L32.2695 25.4258L31.2246 26.4414ZM29.1738 26.4414L28.1289 25.4258L29.1738 24.4102L30.1895 25.4258L29.1738 26.4414ZM34.8281 23.0039C34.8412 24.1953 34.8639 25.3835 34.8965 26.5684C34.929 27.7533 34.9453 28.9447 34.9453 30.1426C34.9453 30.7871 34.916 31.373 34.8574 31.9004C34.7988 32.4277 34.7337 32.9355 34.6621 33.4238C34.5775 33.5215 34.4961 33.6224 34.418 33.7266C34.3464 33.8242 34.2227 33.9154 34.0469 34V32.5156C34.0469 31.7539 34.0339 31.0443 34.0078 30.3867C33.9818 29.7292 33.9525 29.0814 33.9199 28.4434C33.8939 27.8053 33.8678 27.1576 33.8418 26.5C33.8158 25.8359 33.8027 25.123 33.8027 24.3613L34.8281 23.0039Z" fill="black"/>
<path d="M11.0479 22.1396L8.3672 23.5459V22.9307L11.0479 21.542V22.1396Z" fill="black"/>
</svg>
